<?xml version="1.0" encoding="utf-8"?>
<!-- Generator: Adobe Illustrator 18.0.0, SVG Export Plug-In . SVG Version: 6.00 Build 0)  -->
<!DOCTYPE svg PUBLIC "-//W3C//DTD SVG 1.1//EN" "http://www.w3.org/Graphics/SVG/1.1/DTD/svg11.dtd">
<svg version="1.1" id="Layer_1" xmlns="http://www.w3.org/2000/svg" xmlns:xlink="http://www.w3.org/1999/xlink" x="0px" y="0px"
	 width="15.273px" height="12px" viewBox="0 0 15.273 12" enable-background="new 0 0 15.273 12" xml:space="preserve">
<path fill-rule="evenodd" clip-rule="evenodd" fill="#FFFFFF" d="M15.273,1.364c0-0.75-0.622-1.364-1.364-1.364H1.364
	C0.452,0,0,0.716,0,1.551C0,2.327,0.861,3.29,1.466,3.699c1.321,0.92,2.659,1.841,3.98,2.77C6,6.852,6.938,7.636,7.628,7.636h0.009
	h0.009c0.69,0,1.628-0.784,2.182-1.168c1.321-0.929,2.659-1.849,3.989-2.77C14.565,3.179,15.273,2.318,15.273,1.364z M15.273,3.869
	c-0.256,0.281-0.545,0.528-0.852,0.741c-1.423,0.963-2.855,1.935-4.244,2.94C9.46,8.08,8.574,8.727,7.645,8.727H7.636H7.628
	c-0.929,0-1.815-0.648-2.531-1.176c-1.389-1.014-2.821-1.977-4.236-2.94C0.545,4.398,0.256,4.151,0,3.869v6.767
	C0,11.386,0.614,12,1.364,12h12.545c0.75,0,1.364-0.614,1.364-1.364V3.869z"/>
</svg>
