<?xml version="1.0" encoding="utf-8"?>
<!-- Generator: Adobe Illustrator 18.0.0, SVG Export Plug-In . SVG Version: 6.00 Build 0)  -->
<!DOCTYPE svg PUBLIC "-//W3C//DTD SVG 1.1//EN" "http://www.w3.org/Graphics/SVG/1.1/DTD/svg11.dtd">
<svg version="1.1" id="Layer_1" xmlns="http://www.w3.org/2000/svg" xmlns:xlink="http://www.w3.org/1999/xlink" x="0px" y="0px"
	 width="30.505px" height="22px" viewBox="0.023 0.023 30.505 22" enable-background="new 0.023 0.023 30.505 22"
	 xml:space="preserve">
<g>
	<path fill="none" stroke="#555555" stroke-linecap="round" stroke-miterlimit="2.6131" d="M5.92,6.733h18.04
		c0,1.19,0.649,2.164,1.442,2.164V19.36c-0.793,0-1.442,0.974-1.442,2.163H5.92c0-1.19-0.649-2.163-1.442-2.163V8.897
		C5.271,8.897,5.92,7.923,5.92,6.733z"/>
	
		<path fill="none" stroke="#555555" stroke-linecap="round" stroke-linejoin="round" stroke-miterlimit="2.6131" stroke-dasharray="2.2494,3.3741" d="
		M21.217,19.711H8.662"/>
	<circle fill="none" stroke="#555555" stroke-miterlimit="2.6131" cx="9.714" cy="11.634" r="1.027"/>
	<circle fill="none" stroke="#555555" stroke-miterlimit="2.6131" cx="20.166" cy="11.634" r="1.027"/>
	
		<line fill="none" stroke="#555555" stroke-linecap="round" stroke-linejoin="round" stroke-miterlimit="2.6131" x1="9.713" y1="10.424" x2="9.713" y2="2.418"/>
	
		<line fill="none" stroke="#555555" stroke-linecap="round" stroke-linejoin="round" stroke-miterlimit="2.6131" x1="20.166" y1="10.273" x2="20.166" y2="2.418"/>
	<path fill="none" stroke="#555555" stroke-linecap="round" stroke-linejoin="round" stroke-miterlimit="2.6131" d="M21.098,2.092
		h6.178 M7.68,2.092H22.2 M1.539,2.092h7.242"/>
	<polygon fill="none" stroke="#555555" stroke-linecap="round" stroke-linejoin="round" stroke-miterlimit="2.6131" points="
		30.028,2.092 28.669,2.877 27.31,3.662 27.31,2.092 27.31,0.523 28.669,1.307 	"/>
	
		<line fill="none" stroke="#555555" stroke-linecap="round" stroke-linejoin="round" stroke-miterlimit="2.6131" x1="1.386" y1="2.092" x2="0.523" y2="0.599"/>
	
		<line fill="none" stroke="#555555" stroke-linecap="round" stroke-linejoin="round" stroke-miterlimit="2.6131" x1="0.523" y1="3.585" x2="1.385" y2="2.091"/>
	
		<line fill="none" stroke="#555555" stroke-linecap="round" stroke-linejoin="round" stroke-miterlimit="2.6131" x1="4.603" y1="2.092" x2="3.741" y2="0.599"/>
	
		<line fill="none" stroke="#555555" stroke-linecap="round" stroke-linejoin="round" stroke-miterlimit="2.6131" x1="3.741" y1="3.585" x2="4.603" y2="2.091"/>
	
		<line fill="none" stroke="#555555" stroke-linecap="round" stroke-linejoin="round" stroke-miterlimit="2.6131" x1="9.714" y1="2.799" x2="9.714" y2="1.28"/>
	
		<line fill="none" stroke="#555555" stroke-linecap="round" stroke-linejoin="round" stroke-miterlimit="2.6131" x1="20.167" y1="2.799" x2="20.167" y2="1.28"/>
</g>
</svg>
