<?xml version="1.0" encoding="utf-8"?>
<!-- Generator: Adobe Illustrator 18.0.0, SVG Export Plug-In . SVG Version: 6.00 Build 0)  -->
<!DOCTYPE svg PUBLIC "-//W3C//DTD SVG 1.1//EN" "http://www.w3.org/Graphics/SVG/1.1/DTD/svg11.dtd">
<svg version="1.1" id="group" xmlns="http://www.w3.org/2000/svg" xmlns:xlink="http://www.w3.org/1999/xlink" x="0px" y="0px"
	 width="112.2px" height="39px" viewBox="0 367.9 112.2 39" enable-background="new 0 367.9 112.2 39" xml:space="preserve">
<g>
	<polygon points="12.8,377.4 10.5,377.4 10.5,379.9 12.9,379.9 12.9,377.4 	"/>
	<polygon points="12.8,381.9 10.5,381.9 10.5,393 12.8,393 12.8,381.9 	"/>
	<path d="M23.2,383.4c-0.7-1-1.7-1.5-3.1-1.5c-1.1,0-2.1,0.5-2.8,1.2v-1h-2.3V393h2.3v-6.8c0-1.5,0.8-2.4,2.2-2.4
		c1.4,0,2.1,0.8,2.1,2.4v6.8h2.3v-6.9c0-1.7,1.2-2.3,2.2-2.3c1.4,0,2.1,0.8,2.1,2.4v6.8h2.3v-7.1c0-1.4-0.4-2.4-1.2-3.2
		c-0.6-0.6-1.7-1-2.8-1C25.2,381.8,24.1,382.3,23.2,383.4"/>
	<path d="M45.3,377.5H43v12.5c0,1.5,0.8,3.1,3.1,3.1h1.3V391h-1c-0.8,0-1.1-0.3-1.1-1.2L45.3,377.5L45.3,377.5L45.3,377.5z"/>
	<path d="M56.6,387.1c0-3.2-1.9-5.4-4.7-5.4c-2.9,0-4.7,2.2-4.7,5.7c0,4.7,2.7,5.7,5,5.7c2,0,3.1-0.6,4.1-1.7l0.1-0.1l-1.5-1.4
		l-0.1,0.1c-0.7,0.7-1.4,1.1-2.6,1.1c-1.7,0-2.7-1.1-2.7-2.9h7.1L56.6,387.1 M49.5,386.5c0-0.6,0.1-0.9,0.3-1.4
		c0.3-0.8,1.2-1.4,2.1-1.4c1,0,1.7,0.5,2.1,1.4c0.2,0.5,0.3,0.8,0.3,1.4H49.5z"/>
	<path d="M84.2,383.4c-0.7-1-1.7-1.5-3.1-1.5c-1.1,0-2.1,0.4-2.8,1.1v-1h-2.3v6.7c0,1.5-0.8,2.4-2.2,2.4c-1.4,0-2.1-0.8-2.1-2.4
		v-6.7h-2.4v7c0,1.4,0.4,2.4,1.2,3.2c0.7,0.6,1.6,1,2.8,1c1.1,0,2.1-0.4,2.8-1.1v1h2.3v-6.8c0-1.7,1.2-2.4,2.2-2.4
		c1.4,0,2.1,0.8,2.1,2.4v6.8h2.3v-6.9c0-1.7,1.2-2.3,2.2-2.3c1.4,0,2.1,0.8,2.1,2.4v6.8h2.3v-7.1c0-1.4-0.4-2.4-1.2-3.2
		c-0.6-0.6-1.7-1-2.8-1C86.2,381.8,85.1,382.3,84.2,383.4"/>
	<path d="M97,381.8c-1.9,0-3,0.4-4,1.6l-0.1,0.1l1.5,1.5l0.1-0.1c0.6-0.8,1.2-1,2.3-1c1.6,0,2.3,0.6,2.3,2v0.7h-2.8
		c-2.4,0-3.9,1.2-3.9,3.2c0,1,0.3,1.8,0.9,2.4c0.7,0.7,1.6,1,3,1c1.3,0,2.1-0.3,2.8-1v0.9h2.3v-7.5
		C101.6,383.1,100.1,381.8,97,381.8 M99.3,389c0,0.8-0.1,1.3-0.5,1.5c-0.5,0.5-1.1,0.6-2,0.6c-1.3,0-1.9-0.5-1.9-1.5
		c0-1,0.7-1.5,1.9-1.5h2.5L99.3,389L99.3,389z"/>
	<path d="M105.5,382.9v-1h-2.3V393h2.3v-6.8c0-1.7,1.2-2.4,2.2-2.4c1.4,0,2.1,0.8,2.1,2.4v6.8h2.3v-7.1c0-1.4-0.3-2.4-1.1-3.2
		c-0.7-0.6-1.7-1-2.8-1C107.3,381.8,106.3,382.2,105.5,382.9"/>
	<path d="M0.6,385.1c0,1.9,1.1,2.9,3.3,3.1l1.7,0.2c1,0.1,1.4,0.5,1.4,1.2c0,0.9-0.8,1.5-2.3,1.5c-1.4,0-2.4-0.4-3.1-1.2l-0.1-0.1
		L0,391.4l0.1,0.1c1.4,1.4,3.1,1.6,4.6,1.6c2.8,0,4.6-1.4,4.6-3.5c0-1.9-1.1-3-3.4-3.2l-1.7-0.1c-1.3-0.1-1.5-0.7-1.5-1.2
		c0-0.8,0.7-1.4,1.9-1.4c1.2,0,2.1,0.3,2.6,0.8l0.1,0.1l1.5-1.5L8.8,383c-1-0.8-2.3-1.3-4.1-1.3C2.3,381.7,0.6,383,0.6,385.1"/>
	<path d="M61,377.5h-2.3V393h2.4v-6.8c0-1.5,0.8-2.3,2.1-2.3c1.4,0,2.1,0.8,2.1,2.3v6.8h2.3v-7.2c0-2.5-1.5-4.1-3.9-4.1
		c-1.1,0-2,0.4-2.8,1.2V377.5L61,377.5z"/>
	<path d="M40.3,382.8c-0.6-0.6-1.6-1-2.8-1c-1.2,0-2.1,0.3-2.8,1.2v-1h-2.3v15.5h2.3V392c0.7,0.8,1.5,1.2,2.8,1.2
		c1.1,0,2.1-0.4,2.7-1c1.1-1.1,1.2-3,1.2-4.7C41.5,385.7,41.4,383.9,40.3,382.8 M37,391c-1.9,0-2.2-1.7-2.2-3.6
		c0-1.9,0.3-3.5,2.2-3.5c1.8,0,2.2,1.4,2.2,3.5C39.2,389.6,38.8,391,37,391"/>
</g>
</svg>
