<?xml version="1.0" encoding="utf-8"?>
<!-- Generator: Adobe Illustrator 18.0.0, SVG Export Plug-In . SVG Version: 6.00 Build 0)  -->
<!DOCTYPE svg PUBLIC "-//W3C//DTD SVG 1.1//EN" "http://www.w3.org/Graphics/SVG/1.1/DTD/svg11.dtd">
<svg version="1.1" id="Layer_1" xmlns="http://www.w3.org/2000/svg" xmlns:xlink="http://www.w3.org/1999/xlink" x="0px" y="0px"
	 width="100.1px" height="39px" viewBox="0 0 100.1 39" enable-background="new 0 0 100.1 39" xml:space="preserve">
<g>
	<path d="M68.3,28.5l0-13l1.9,0c0,0.8,0.1,1.4,0.1,2.2c1.5-1.6,3.8-2.9,5.9-2.2c0.9,0.3,2,1.1,2.3,2.2c0,0,0.1,0.5,0.1,0.8
		c0,0.3,0,10.2,0,10.2c0,0.4,0,0.5,0,0.5l-2,0c0,0,0-0.2,0-0.4c0-0.2,0-10,0-10c0-0.6-0.3-1.1-0.7-1.4c-1-0.8-2.2-0.7-3.3-0.1
		c-0.9,0.5-1.7,1.3-2.4,2.2l0,9.8l-2,0L68.3,28.5z"/>
	<path d="M78.5,15.3l2.4,0l0-4.7l2,0l0,4.7l3.3,0l0,1.7l-3.3,0l0,8.6c0,0.6-0.1,1.3,0.2,1.7c0.8,0.8,1.9,0.7,2.8,0.6l0.3-0.1
		c0,0,0,1.3,0,1.2c-0.7,0.3-1.5,0.4-2.2,0.3c-1-0.1-2.2-0.5-2.7-1.6c-0.2-0.4-0.4-1-0.4-2l0-8.9h-2.4L78.5,15.3z"/>
	<polygon points="89.1,29.2 87.1,29.2 87.1,15.3 89.1,15.3 	"/>
	<polygon points="89.1,9.5 89.1,11.5 87.1,11.5 87.1,9.5 	"/>
	<rect x="96.9" y="28.2" width="0" height="0"/>
	<rect x="97.7" y="22.3" width="0" height="0.1"/>
	<path d="M19.9,27.6c-0.3,0.5-0.5,1.6-0.5,1.6l-1.5,0l0-19.7l2,0l0,7.4c0,0,1.2-1.1,2.5-1.5c4.5-1.4,6.5,3,6.5,7
		c0,4.2-2.2,7.2-5.3,6.9C20.9,29.1,19.9,27.6,19.9,27.6 M20,25.8c0,0,0.1,0.4,1,1.1c1,0.8,2.6,1.2,3.8,0.6c1.4-0.7,2.2-2.6,2.2-5.2
		c0-5.6-3.6-6.3-5.4-5.1c-1.2,0.7-1.6,1.6-1.6,1.6L20,25.8z"/>
	<path d="M48.3,27.6c-0.3,0.5-0.5,1.6-0.5,1.6l-1.5,0l0-19.7l2,0l0,7.4c0,0,1.2-1.1,2.5-1.5c4.5-1.4,6.5,3,6.5,7
		c0,4.2-2.2,7.2-5.3,6.9C49.3,29.1,48.3,27.6,48.3,27.6 M48.3,25.8c0,0,0.1,0.4,1,1.1c1,0.8,2.6,1.2,3.8,0.6
		c1.4-0.7,2.2-2.6,2.2-5.2c0-5.6-3.6-6.3-5.4-5.1c-1.2,0.8-1.6,1.6-1.6,1.6L48.3,25.8z"/>
	<path d="M29.4,29.2h1.9v-7.3c0-0.4,0.4-1.8,1.3-3c0.7-1,1.9-2,3.5-1.8l0.1-1.8c0,0-3.3-1-4.9,3.5l0-3.3h-1.9L29.4,29.2L29.4,29.2z"
		/>
	<path d="M38.3,23.4c1.3-0.7,2.6-1,3.9-1.4l1.1-0.3l0.1,0l0.1,3.9c-0.8,1-1.8,2-3,2.2c-1,0.2-2,0.2-2.7-0.6
		c-0.6-0.6-0.6-1.8-0.3-2.6C37.5,24.1,37.9,23.7,38.3,23.4 M45.6,29.2L45.6,29.2c-0.1-0.5-0.2-1-0.3-1.5l-0.1-4.6l0-2.6
		c0-0.9,0.1-1.9-0.2-2.7c-0.5-1.4-2-2.2-3.2-2.4l-0.5-0.1c-0.2,0-0.3,0-0.5,0c-2-0.1-4,0.9-5.2,2.8c0.4,0.3,0.7,0.6,1.1,0.9l0.4-0.6
		c1-1.2,2.9-1.9,4.2-1.5l0,0c0.7,0.1,1.3,0.5,1.7,1.1c0.5,0.6,0.4,1.5,0.4,2.3c-2,0.7-3.8,0.9-5.6,1.8c-0.8,0.4-1.4,1-1.9,1.7
		c-0.7,1-0.6,2.7-0.1,3.8c0.4,0.8,0.9,1.2,1.6,1.6c0.3,0.2,0.5,0.2,0.9,0.3c1.8,0.4,3.7-0.4,5.2-1.9l0,0l0.3,1.7L45.6,29.2z"/>
	<path d="M60.3,23.4c1.3-0.7,2.6-1,3.9-1.4l1.1-0.3l0.1,0l0.1,3.9c-0.8,1-1.8,2-3,2.2c-1,0.2-2,0.2-2.7-0.6
		c-0.6-0.6-0.6-1.8-0.3-2.6C59.4,24.1,59.8,23.7,60.3,23.4 M67.6,29.2L67.6,29.2c-0.1-0.5-0.2-1-0.3-1.5L67.2,23l0-2.6
		c0-0.9,0.1-1.9-0.2-2.7c-0.5-1.4-2-2.2-3.2-2.4l-0.5-0.1c-0.2,0-0.3,0-0.5,0c-2-0.1-4,0.9-5.2,2.8c0.4,0.3,0.7,0.6,1.1,0.9l0.4-0.6
		c1-1.2,2.9-1.9,4.2-1.5l0,0c0.7,0.1,1.3,0.5,1.7,1.1c0.5,0.6,0.4,1.5,0.4,2.3c-2,0.7-3.8,0.9-5.6,1.8c-0.8,0.4-1.4,1-1.9,1.7
		c-0.7,1-0.6,2.7-0.1,3.8c0.4,0.8,0.9,1.2,1.6,1.6c0.3,0.2,0.5,0.2,0.9,0.3c1.8,0.4,3.7-0.4,5.2-1.9l0,0l0.3,1.7L67.6,29.2z"/>
	<path d="M92.7,23.4c1.3-0.7,2.6-1,3.9-1.4l1.1-0.3l0.1,0l0.1,3.9c-0.8,1-1.8,2-3,2.2c-1,0.2-2,0.2-2.7-0.6
		c-0.6-0.6-0.6-1.8-0.3-2.6C91.9,24.1,92.3,23.7,92.7,23.4 M100.1,29.2L100.1,29.2c-0.1-0.5-0.2-1-0.3-1.5L99.7,23l0-2.6
		c0-0.9,0.1-1.9-0.2-2.7c-0.5-1.4-2-2.2-3.2-2.4l-0.5-0.1c-0.2,0-0.3,0-0.5,0c-2-0.1-4,0.9-5.2,2.8c0.4,0.3,0.7,0.6,1.1,0.9l0.4-0.6
		c1-1.2,2.9-1.9,4.2-1.5l0,0c0.7,0.1,1.3,0.5,1.7,1.1c0.5,0.6,0.4,1.5,0.3,2.3c-2,0.7-3.8,0.9-5.6,1.8c-0.8,0.4-1.4,1-1.9,1.7
		c-0.7,1-0.6,2.7-0.1,3.8c0.4,0.8,0.9,1.2,1.6,1.6c0.3,0.2,0.5,0.2,0.9,0.3c1.8,0.4,3.7-0.4,5.2-1.9l0,0l0.3,1.7L100.1,29.2z"/>
	<polygon fill="#666666" points="6.7,9.5 8.3,11.2 2.3,18 2.3,27 12.8,27 12.8,19.7 9.8,16.2 6.6,19.7 6.6,22.6 8.6,22.6 8.6,19.8 
		10.9,19.8 10.9,24.9 4.3,24.9 4.3,18.6 9.7,12.8 15.2,19 15.2,29.1 0,29.1 0,17 	"/>
</g>
</svg>
