<?xml version="1.0" encoding="utf-8"?>
<!-- Generator: Adobe Illustrator 18.0.0, SVG Export Plug-In . SVG Version: 6.00 Build 0)  -->
<!DOCTYPE svg PUBLIC "-//W3C//DTD SVG 1.1//EN" "http://www.w3.org/Graphics/SVG/1.1/DTD/svg11.dtd">
<svg version="1.1" id="Layer_1" xmlns="http://www.w3.org/2000/svg" xmlns:xlink="http://www.w3.org/1999/xlink" x="0px" y="0px"
	 width="55.5px" height="39px" viewBox="0 0 55.5 39" enable-background="new 0 0 55.5 39" xml:space="preserve">
<g>
	<path fill="#FFFFFF" d="M46.4,8.8c-5-2.8-11.6-4.4-18.7-4.4c-7,0-13.7,1.6-18.7,4.4c-5,2.9-7.8,6.7-7.8,10.7
		c0,4.1,2.8,7.9,7.8,10.7c5,2.8,11.6,4.4,18.7,4.4c7,0,13.7-1.6,18.7-4.4c5-2.9,7.8-6.7,7.8-10.7C54.2,15.4,51.4,11.6,46.4,8.8z"/>
	<path d="M47.4,7.8C42.1,4.7,35.2,3,27.8,3C20.4,3,13.4,4.7,8.2,7.8C2.9,10.9,0,15.1,0,19.5c0,4.4,2.9,8.6,8.2,11.7
		c5.2,3.1,12.2,4.8,19.6,4.8c7.4,0,14.4-1.7,19.6-4.8c5.3-3.1,8.2-7.3,8.2-11.7C55.5,15.1,52.6,10.9,47.4,7.8z M46.1,29
		c-4.8,2.9-11.3,4.4-18.3,4.4c-6.9,0-13.4-1.6-18.3-4.4c-4.5-2.6-6.9-6-6.9-9.5C2.6,16,5,12.7,9.5,10c4.8-2.9,11.3-4.4,18.3-4.4
		c6.9,0,13.4,1.6,18.3,4.4c4.5,2.6,6.9,6,6.9,9.5C53,23,50.5,26.3,46.1,29z M19.1,18.3c0.2,0,0.3,0,0.4,0c0.5,0,1-0.6,1-1.3
		c0-0.7-0.5-1-1.5-1c-0.9,0-2.3,0.2-3.2,0.4c1-1.7,2-3.3,2.7-4.1l0.2-0.1c1.8-0.4,3.4-0.7,4.4-0.7c0.3,0,0.4,0,0.7,0.1
		c0.2,0,0.4,0.1,0.5,0.1c0.5,0,1.1-0.7,1.1-1.3c0-0.7-0.8-1.1-2-1.1c-1.6,0-4.4,0.4-6.3,1c-1.5,0.4-2.1,0.8-2.1,1.6
		c0,0.3,0.1,0.5,0.5,0.8l-0.1,0.2c-0.7,1-2,3-2.9,4.6c-1.1,1.9-1.9,3.4-2.7,5.4c-0.6,1.4-0.8,2.2-0.8,2.8c0,0.8,0.7,1.5,1.6,1.5
		c0.5,0,0.6-0.1,1.1-1.7c0.5-1.6,1.6-4,2.7-6.2l0.1-0.2c1.3-0.4,3-0.7,4.2-0.7C18.8,18.3,18.9,18.3,19.1,18.3z M43.6,11.1
		c-0.7,0-1.2,0.6-2.2,2.3c-0.8,1.6-1.1,2-1.8,3.4c-0.4-0.2-0.8-0.4-1.3-0.4c-1.1,0-2.5,0.7-3.5,1.9c-0.5,0.6-0.9,1.2-1.3,1.8
		c-0.2,0.3-0.6,1-0.6,1.1l-0.6,0.8c-1,1.3-2.5,2.3-3.5,2.3c-0.7,0-1.1-0.3-1.1-0.9c0-0.2,0.1-0.4,0.2-0.6c0.3,0.1,0.5,0.1,0.8,0.1
		c2.1,0,4.2-2.2,4.2-4.3c0-1.1-0.7-1.9-1.8-1.9c-1.3,0-2.8,1.1-4,2.6c-0.1,0.2-0.7,0.7-0.8,0.9c-0.6,0.5-1.1,0.8-1.4,0.8
		c-0.1,0-0.3-0.1-0.3-0.2c0-0.2,0.4-0.7,1-1.1c0.7-0.4,0.9-0.7,0.9-1.2c0-0.4-0.4-0.9-0.8-0.9c-0.4,0-0.8,0.2-1.8,1
		c-1.1,0.8-1.9,1.5-2.9,2.6l-0.2,0.2c0.2-0.5,0.7-1.3,1.2-1.9c0.6-0.7,0.7-0.9,0.7-1.3c0-0.4-0.4-0.8-0.9-0.8
		c-0.4,0-0.7,0.2-1.1,0.6c-0.4,0.4-1.1,1.3-1.6,2.2C18,22.4,17,25.1,17,26c0,0.6,0.4,1,1,1c0.5,0,0.8-0.2,1.1-0.8l0.6-1.3
		c0.7-1.3,1.9-2.8,3.3-3.7c-0.3,0.4-0.4,0.7-0.4,1c0,0.7,0.6,1.1,1.4,1.1c0.5,0,1-0.1,1.6-0.4c0,0.3-0.1,0.5-0.1,0.8
		c0,1.6,1.1,2.8,2.7,2.8c1.3,0,2.7-0.7,4-1.9c0.1,1.3,0.9,2.2,2,2.2c1.1,0,2.2-0.8,2.9-2.1c0.1,1.1,0.7,1.8,1.6,1.8
		c0.9,0,1.9-0.7,3.1-2.2c1-1.2,1.7-2.6,1.7-3.1c0-0.4-0.3-0.7-0.7-0.7c-0.4,0-0.6,0.2-1.1,1c-0.4,0.5-1,1.3-1.2,1.6
		c-0.3,0.3-0.6,0.5-0.8,0.5c-0.2,0-0.4-0.2-0.4-0.5c0-0.3,0.1-0.7,0.4-1.4c0.5-1.2,1.2-2.8,2.1-4.4c1-1.9,1.6-2.9,2.3-4.1
		c0.4-0.5,0.5-0.8,0.5-1.1C44.5,11.5,44,11.1,43.6,11.1z M30.7,18.9c0.2,0,0.3,0.2,0.3,0.4c0,0.9-1.2,1.9-2.1,1.9
		c-0.2,0-0.3,0-0.4-0.1C29.2,19.9,30.2,18.9,30.7,18.9z M37.7,20.7c-0.7,1.4-1.1,2.3-1.4,2.8c-0.4,0.7-0.8,1-1.2,1
		c-0.3,0-0.4-0.2-0.4-0.6c0-1,0.7-2.5,1.6-3.8c0.7-1,1.2-1.3,1.9-1.3c0.2,0,0.3,0,0.5,0.1L37.7,20.7z"/>
</g>
</svg>
