<?xml version="1.0" encoding="utf-8"?>
<!-- Generator: Adobe Illustrator 18.0.0, SVG Export Plug-In . SVG Version: 6.00 Build 0)  -->
<!DOCTYPE svg PUBLIC "-//W3C//DTD SVG 1.1//EN" "http://www.w3.org/Graphics/SVG/1.1/DTD/svg11.dtd">
<svg version="1.1" id="Layer_1" xmlns="http://www.w3.org/2000/svg" xmlns:xlink="http://www.w3.org/1999/xlink" x="0px" y="0px"
	 width="1476.9902344px" height="299.9712524px" viewBox="0 0 1476.9902344 299.9712524"
	 enable-background="new 0 0 1476.9902344 299.9712524" xml:space="preserve">
<g>
	<path d="M150.3731842,297.6459045l31.7799072-149.2105103h-58.3277512L92.0454407,297.6459045h-57.165062L92.4329987,27.7105217
		c-17.5693741,7.363636-31.2416191,18.387558-40.9952049,33.0502357s-14.6196175,32.6411438-14.6196175,53.9569321
		c0,5.0382767,0.2799034,9.1507187,0.8827744,12.3157883c0.5598106,3.1650696,1.2057419,5.6842041,1.9378014,7.5358887
		c0.6889954,1.8947296,1.3349266,3.3373108,1.9377975,4.3708038c0.5598068,1.033493,0.8612442,1.9378052,0.8612442,2.7129211
		c-6.8468895,0-12.9186592-0.6674652-18.2153091-2.0454559c-5.2966499-1.3349304-9.7535868-3.5095673-13.3708115-6.4808655
		c-3.6172242-2.971283-6.3301425-6.9114761-8.1387548-11.8205643C0.9043061,116.39711,0,110.3253479,0,103.0908966
		c0-8.7846909,1.8947366-17.4401932,5.7057409-25.966507s9.0215302-16.6004753,15.6100454-24.2224846
		s14.3612423-14.662674,23.3612423-21.1220055c8.9569359-6.4593296,18.6243973-12.0358829,28.9593239-16.751194
		S94.6937637,6.631578,105.8038101,3.9617219C116.9138565,1.334928,128.0239105,0,139.1339569,0
		c2.971283,0,5.7057343,0.0645933,8.2463989,0.1937799c2.4976196,0.1291866,5.0598145,0.3229665,7.6435394,0.5813397
		l-25.3851624,118.2057266h58.3277435L213.3516388,0.7751195h57.1650848l-62.9784698,296.8707886H150.3731842z"/>
	<path d="M482.1243286,146.8851471c-7.7511902,8.1387482-17.7631531,15.0502319-30.0358582,20.7344513
		c-12.2727356,5.6842041-25.7081299,9.7535858-40.3062134,12.2081299
		c-1.5502625,18.3444977-5.0813599,34.8803711-10.5502625,49.6076508
		c-5.5119629,14.7272644-12.4449768,27.2583771-20.8421021,37.5933075
		c-8.3971252,10.3348999-18.0215149,18.2798767-28.8731995,23.8348999c-10.8516541,5.5550232-22.3492737,8.33255-34.4927979,8.33255
		c-9.1722717,0-17.6770325-1.1411438-25.4713135-3.4019165c-7.8373108-2.2392273-14.5550232-5.8564453-20.1531067-10.8516846
		c-5.6411438-4.9521484-10.0334778-11.4114685-13.1770325-19.3779907
		c-3.1650543-7.9234314-4.7583618-17.5908966-4.7583618-28.9593201c0-7.7511902,0.8181763-16.5574036,2.4330139-26.4617157
		c1.6148376-9.8612366,4.1770325-20.0454407,7.7511902-30.5095673c3.5310974-10.4641113,8.1387634-20.6913757,13.7368469-30.7248688
		c5.6411438-9.9904327,12.4664917-18.9473724,20.5406799-26.8277512
		c8.0741577-7.8803787,17.4186401-14.2535858,28.0119324-19.0765533
		c10.5933228-4.8660278,22.6722717-7.2775116,36.2368469-7.2775116c33.9760742,0,50.9641113,21.1220093,50.9641113,63.3660202
		v0.387558c0.6459351,0.2583771,1.2703247,0.387558,1.8301392,0.387558c0.6028748,0,1.3995361,0,2.4330139,0
		c4.6507263,0,9.6459351-0.66745,15.0071716-2.0454407c5.3612366-1.3349304,10.765564-3.1220093,16.1914062-5.3181915
		c5.4258118-2.196167,10.7224731-4.7583618,15.8899231-7.6435394c5.1674805-2.9282227,9.882782-5.8564606,14.1459351-8.8277435
		L482.1243286,146.8851471z M378.8396606,180.9904022c-4.1339722-1.033493-6.9545288-3.0574188-8.4401855-6.1148224
		c-1.4856567-3.0143585-2.2177124-6.5454559-2.2177124-10.5502472c0-5.5550232,1.1196289-10.0980835,3.3804016-13.6507111
		c2.2607422-3.5526276,5.275116-6.1794281,9.0215149-7.8588562c-0.2583618-4.2631531-0.7105103-7.8588409-1.3564453-10.7440186
		c-0.6459351-2.9282227-1.5502625-5.2966461-2.7129211-7.1913834c-1.1626892-1.8516693-2.6268005-3.1865997-4.3493042-3.9617157
		c-1.7655334-0.7751236-3.9832458-1.1626816-6.696167-1.1626816c-4.7799072,0-9.3660278,1.8516769-13.7583618,5.5119629
		c-4.392334,3.7033386-8.5693665,8.5693665-12.4880371,14.6411438c-3.961731,6.0717621-7.578949,13.0263062-10.8516846,20.8421021
		c-3.3157654,7.8157959-6.1148071,15.8468933-8.4401855,24.1148224c-2.3253479,8.2679443-4.1339722,16.4497681-5.4258423,24.5023956
		c-1.2918396,8.0956879-1.9377747,15.4162598-1.9377747,22.004776s0.3444824,11.9497681,1.0765381,16.0837402
		c0.6889954,4.1339722,1.8516846,7.4066925,3.4880371,9.7966309c1.5932922,2.3899536,3.7033691,4.0263367,6.2870789,4.9306335
		c2.5837402,0.9042969,5.7488098,1.3564758,9.4952087,1.3564758c4.7799072,0,9.5813599-2.1315918,14.4473877-6.3947449
		c4.8229675-4.2631683,9.3229675-10.0765533,13.4569397-17.4402008c4.1339722-7.3636322,7.7727051-16.083725,10.9593201-26.1602783
		C374.92099,203.4688721,377.2894287,192.6172028,378.8396606,180.9904022z"/>
	<path d="M748.3778687,226.5286713c-5.5549927,16.2775116-11.5406494,29.2607727-17.9138794,38.9497528
		c-6.4162598,9.6889954-12.8755493,17.0957031-19.3779297,22.1770325
		c-6.5454712,5.1244202-12.9402466,8.4401855-19.2057495,9.990448c-6.265564,1.5502319-12.0358887,2.3253479-17.3325806,2.3253479
		c-8.784668,0-16.1483154-1.2488098-22.0908813-3.7894592c-5.9425659-2.4976196-10.7224731-5.8564758-14.3397217-10.0765686
		c-3.6171875-4.1770325-6.2440186-8.9569397-7.8588257-14.3397217c-1.6148682-5.3396912-2.411499-10.8731995-2.411499-16.5574036
		c0-6.7176971,0.9258423-14.5550232,2.7990723-23.533493c1.8731689-8.9784698,3.9186401-18.1937714,6.1148071-27.6243896
		s4.2200928-18.5382843,6.1148071-27.3229675c1.8516846-8.7846832,2.7990723-16.3421021,2.7990723-22.6722412
		c0-13.5645905-4.7799072-20.3468933-14.3397217-20.3468933c-3.6172485,0-6.9760742,0.9689026-10.0765381,2.9066925
		c-3.1004639,1.9378052-5.9425659,4.5430756-8.5263062,7.8588562c-2.5837402,3.2727356-4.9091187,7.1483307-6.9760742,11.6268005
		c-2.0670166,4.4353943-3.8756104,9.1937714-5.4258423,14.2320557l-26.9354248,127.313385h-57.1650391l29.0669556-137.0023804
		c0.7751465-3.1004791,1.1626587-6.3947449,1.1626587-9.882782c0-2.3253479-0.1937256-4.5215302-0.5812988-6.5885162
		s-1.0550537-3.8971252-2.0454712-5.5119629c-0.9473877-1.6148224-2.196167-2.9282227-3.6602783-3.8755951
		c-1.5072021-0.9904327-3.4019165-1.4641113-5.7272949-1.4641113c-3.8755493,0-7.4497681,0.9689026-10.7655029,2.9066925
		c-3.2727661,1.9378052-6.265564,4.5861359-8.9138794,7.9449768c-2.6483765,3.3588562-4.9952393,7.2990417-7.0622253,11.8205719
		s-3.8755798,9.3014374-5.4258423,14.3397217l-26.9353943,127.313385h-57.1650696l42.0502319-198.430603h57.1650696
		l-4.2631836,20.5406647c4.2631836-4.7799072,8.5263672-8.612442,12.7894897-11.5406723
		c4.2631836-2.8851624,8.461731-5.1459274,12.5957031-6.7607651c4.1339722-1.61483,8.1387329-2.7129135,12.0143433-3.3157883
		c3.8756104-0.5598068,7.5574341-0.8612442,11.0454712-0.8612442c5.1674805,0,10.0119629,0.6244049,14.5335083,1.8516769
		c4.5214844,1.227272,8.5263062,3.1865997,12.0143433,5.8995209s6.4592896,6.2440186,8.9138794,10.5502396
		c2.4545288,4.3492813,4.1985474,9.6028671,5.2320557,15.8038177c4.7799072-7.3636322,9.6889648-13.2631531,14.7272339-17.7416153
		c5.038269-4.4354095,9.9473877-7.837326,14.7272949-10.1626816s9.3660278-3.8755951,13.7583618-4.6507187
		c4.392334-0.775116,8.3971558-1.162674,12.0143433-1.162674c6.3301392,0,12.1651001,0.8397064,17.5478516,2.5191345
		c5.3397217,1.6794281,9.9904175,4.3277512,13.9521484,7.9449768c3.9186401,3.6172256,6.9976196,8.2679367,9.1937866,13.9521484
		s3.2942505,12.4665146,3.2942505,20.3468857c0,5.2966461-0.4736938,11.0239258-1.4641113,17.1602936
		c-0.9473877,6.1363525-2.1100464,12.4019012-3.4880371,18.775116c-1.3348999,6.4162598-2.8636475,12.7679291-4.5430298,19.0980835
		c-1.6794434,6.3301392-3.2081909,12.4019012-4.5430908,18.2153015c-1.3779907,5.8134003-2.5406494,11.2176971-3.4880371,16.1698608
		c-0.9904175,4.9952087-1.4641113,9.3444977-1.4641113,13.0908966c0,4.9091034,1.1196289,8.9138794,3.4019165,12.0143585
		c2.2391968,3.1004639,6.4162598,4.6507263,12.4880371,4.6507263c4.2631226,0,8.0095825-0.8397217,11.2391968-2.5191345
		c3.2296753-1.6794434,6.1364136-4.069397,8.7200928-7.1698608c2.5837402-3.1004791,4.9306641-6.803833,7.0837402-11.1531219
		c2.1100464-4.3062134,4.2200928-9.0645905,6.2871094-14.2320557H748.3778687z"/>
	<path d="M856.3132935,241.2559509c-2.0670166,11.4976044-5.2966309,20.9928284-9.6890259,28.4856262
		c-4.392334,7.4928284-9.6243896,13.5-15.696167,18.0215454c-6.0717773,4.5215149-12.7894287,7.6865845-20.1530762,9.4952087
		s-15.0502319,2.7129211-23.0598145,2.7129211c-9.3014526,0-17.7200928-1.2057495-25.2990723-3.5741577
		c-7.5358276-2.3899536-14.0167236-6.1148376-19.3779297-11.1531067
		c-5.3612671-5.038269-9.5167847-11.5406799-12.4880371-19.4641113c-2.9713135-7.9665222-4.4569702-17.5478516-4.4569702-28.7870789
		c0-7.6220093,0.7751465-16.4067078,2.3253784-26.3540649c1.5502319-9.9473724,4.0047607-20.1531067,7.3636475-30.6172333
		c3.3588257-10.4641113,7.8157349-20.734436,13.3707886-30.8109894
		c5.5549927-10.0765533,12.2727051-19.0765533,20.1530762-27.0430603
		c7.8804321-7.9234467,17.1172485-14.3397141,27.7105713-19.1626816
		c10.5932617-4.8660278,22.6722412-7.2775116,36.2368164-7.2775116c8.9138794,0,16.1914062,1.076561,21.7894897,3.1866074
		c5.6411133,2.1531067,10.0765381,4.9521484,13.392334,8.4401855c3.2727051,3.4880371,5.5335083,7.5358887,6.7607422,12.1004791
		c1.2272949,4.6076584,1.8516846,9.3444977,1.8516846,14.2535858c0,11.4976044-2.519165,22.1770325-7.5574341,32.0813446
		c-5.038269,9.8612366-11.7990112,18.4952087-20.2607422,25.8588409s-18.1722412,13.3062134-29.1531372,17.8277435
		c-10.980835,4.5215302-22.4138184,7.1698608-34.2990112,7.9449768c-0.2583618,2.1961823-0.4952393,4.3062286-0.6674805,6.2870789
		c-0.215271,2.0239258-0.3013916,3.9186707-0.3013916,5.7272797c0,6.3301392,0.6459351,11.6267853,1.9377441,15.8899536
		c1.2918701,4.2631531,3.0358887,7.6650696,5.2321167,10.162674c2.196167,2.5406799,4.7798462,4.3062134,7.7511597,5.3397217
		c2.9713135,1.0334778,6.2009888,1.5502319,9.6890259,1.5502319c3.8755493,0,7.9019165-0.5813293,12.1220093-1.7440186
		c4.177002-1.1626892,8.3109741-2.7129211,12.4018555-4.6507263c4.0478516-1.9377899,8.0311279-4.1555023,11.9067383-6.696167
		C849.7247925,246.789444,853.2128296,244.098053,856.3132935,241.2559509z M788.4902954,198.430603
		c7.6220093-0.2583771,14.9210815-2.2823029,21.8971558-6.1148376c6.9760742-3.7894745,13.1339722-8.6985626,18.5167236-14.7272797
		c5.3397217-5.9856415,9.6029053-12.8755951,12.7894897-20.6267853c3.1435547-7.7511902,4.7368164-15.7607574,4.7368164-24.0287018
		c0-4.9090881-0.7105103-8.8492813-2.1315308-11.8205719c-1.4210815-2.9712906-4.0048218-4.4569397-7.7512207-4.4569397
		c-5.038269,0-9.9688721,2.4976044-14.8348999,7.4497604c-4.822998,4.9952164-9.3660278,11.4114761-13.5646362,19.2918625
		c-4.1985474,7.8803864-8.0095215,16.6650696-11.411438,26.3540649
		C793.291748,179.4401703,790.557312,188.9999695,788.4902954,198.430603z"/>
	<path d="M1066.9520264,212.1889648c-8.2679443-2.3253632-16.6650391-4.6722412-25.1914062-7.083725
		c-8.5263672-2.3684235-17.4401855-3.574173-26.7416382-3.574173c-6.7176514,0-13.7368164,0.4736938-21.0143433,1.4641266
		c-7.3205566,0.9473572-14.5765381,3.2511902-21.8109741,6.8684082h-1.5502319l-8.3325806-15.5023804v-1.9378052
		c11.1100464-13.3062134,21.8540649-26.7631531,32.2536011-40.4138641
		c10.3995361-13.6076508,19.6363525-27.2799072,27.7320557-40.9736786
		c8.0526123-13.693779,14.5550537-27.2799072,19.4641113-40.8014297
		c4.9090576-13.4784698,7.3636475-26.7631569,7.3636475-39.8110046c0-4.1339703-0.2584229-8.2679424-0.7751465-12.4019127
		s-1.2918701-8.2033482-2.3253174-12.2081318c2.9713135-0.9043064,6.2224121-1.5502391,9.7751465-1.937799
		c3.5526123-0.3875597,6.8898926-0.5813396,9.9903564-0.5813396c6.2009277,0,11.6268311,0.8827751,16.2775879,2.605263
		c4.6506348,1.7655497,8.5908203,4.1770325,11.8205566,7.2775106c3.2296143,3.1004782,5.6411133,6.7607641,7.2559814,10.9377985
		c1.6147461,4.2200947,2.4329834,8.6985626,2.4329834,13.478466c0,6.4593315-1.5286865,13.478466-4.5430908,21.0143509
		c-3.057373,7.5789452-7.1483154,15.3516731-12.3157959,23.3612404s-11.1099854,16.1267929-17.8277588,24.308609
		c-6.7176514,8.224884-13.7368164,16.1267929-21.0142822,23.7487946
		c-7.3205566,7.6220093-14.6842041,14.8564606-22.0909424,21.7033539
		c-7.4497681,6.8468933-14.4473877,12.8540649-21.0358887,18.0215302l0.3875732,1.162674
		c4.392334-1.808609,9.7966309-3.4449768,16.1698608-4.9521484c6.4163208-1.4641113,12.7678833-2.2176971,19.0980835-2.2176971
		c6.2009277,0,12.8970947,0.6459198,20.0454102,1.9377899c7.1914062,1.2918701,14.2536621,2.5837402,21.2297363,3.8755951
		l32.1674805-92.6267776h25.3851318l-19.5717773,92.2392197c4.2631836-1.6794281,8.4832764-4.0263062,12.7033691-7.083725
		c4.177002-3.0143585,8.3540039-6.9330139,12.4880371-11.7129211l1.1625977,0.775116
		c2.196167,3.7464142,3.8110352,7.4282379,4.8444824,11.0454559c1.0335693,3.6172333,1.550293,7.1698608,1.550293,10.6578979
		c0,5.2966461-1.0550537,10.3134003-3.2081299,15.0287018c-2.1101074,4.7153168-5.1029053,8.9354095-8.9138184,12.6818237
		c-3.8110352,3.7463989-8.3110352,6.9545441-13.5646973,9.5813293c-5.2104492,2.6698608-10.8731689,4.5645905-16.9449463,5.7272797
		l-17.2463379,81.775116h-55.2272949L1066.9520264,212.1889648z"/>
	<path d="M1369.0548096,226.5286713c-3.7463379,10.7224884-7.8157959,20.0239258-12.2081299,27.9043121
		c-4.392334,7.8803711-8.9569092,14.5334778-13.6722412,19.9593201s-9.5167236,9.8181763-14.4257812,13.1770325
		c-4.9091797,3.3588562-9.6889648,5.9425964-14.3397217,7.7511902c-4.6507568,1.8086243-9.107666,3.0358887-13.3708496,3.6818237
		s-8.1387939,0.9689026-11.6268311,0.9689026c-11.3684082,0-20.411377-3.1220093-27.1291504-9.3875732
		c-6.7176514-6.2655334-10.7871094-15.6746216-12.2081299-28.205719
		c-5.038208,8.1387634-10.1411133,14.6626587-15.3085938,19.5717773
		c-5.1674805,4.9090881-10.2703857,8.7200928-15.3085938,11.4329834c-5.0383301,2.7129211-9.9473877,4.4784851-14.7272949,5.3397217
		c-4.7799072,0.8181763-9.2368164,1.2488098-13.3708496,1.2488098c-5.9425049,0-11.4975586-0.9042969-16.6650391-2.7129211
		s-9.6674805-4.6507263-13.4569092-8.5263062c-3.8325195-3.8756104-6.8253174-8.7846985-9.0214844-14.7272644
		c-2.196167-5.9425964-3.2943115-13.1124573-3.2943115-21.5095825c0-3.617218,0.2584229-7.578949,0.7751465-11.9066925
		c0.5167236-4.3277588,1.2918701-9.0215302,2.3253174-14.0598145l26.9354248-127.3133698h57.1650391l-28.4855957,134.8707886
		c-0.7751465,4.1339722-1.1627197,7.8803864-1.1627197,11.2392426c0,4.5215302,0.8397217,8.3755951,2.519165,11.5406647
		s4.7799072,4.7368469,9.3013916,4.7368469c3.8756104,0,7.4282227-0.8612671,10.657959-2.6268005
		c3.2296143-1.7225037,6.1578369-4.1555023,8.8061523-7.2559814s4.9737549-6.803833,6.9760742-11.1315765
		c2.0024414-4.3277588,3.7895508-9.0215302,5.3397217-14.0598145l26.9354248-127.3133698h57.1650391l-28.4855957,134.8707886
		c-0.6459961,2.1961823-1.0981445,4.3492889-1.3564453,6.5023956c-0.2584229,2.1100464-0.3875732,4.2200928-0.3875732,6.2870789
		c0,5.5550232,1.3133545,9.387558,3.9616699,11.5406647c2.6483154,2.1100464,6.7607422,3.186615,12.3157959,3.186615
		c3.8756104,0,7.4498291-0.8612671,10.765625-2.6268005c3.2727051-1.7225037,6.2869873-4.1555023,9-7.2559814
		c2.7128906-3.1004791,5.1027832-6.803833,7.1697998-11.1315765c2.0670166-4.3277588,3.8110352-9.0215302,5.2320557-14.0598145
		H1369.0548096z"/>
	<path d="M1468.2701416,87.007164c0.7751465,17.1818161,1.5072021,32.0598068,2.2392578,44.6770248
		c0.6889648,12.5741577,1.3779297,23.5119629,2.0239258,32.7272797c0.645874,9.2583618,1.2272949,17.0956879,1.7440186,23.5550079
		c0.5167236,6.4593353,0.9903564,12.1865997,1.4425049,17.1387634c0.4521484,4.9952087,0.7751465,9.5167389,0.9904785,13.5645905
		c0.1722412,4.0909119,0.2799072,8.3110046,0.2799072,12.7033386c0,8.6555023-1.2056885,16.3636475-3.5957031,23.1674652
		c-2.3898926,6.7607574-5.5980225,12.6818085-9.6889648,17.720108c-4.0478516,5.038269-8.784668,9.3444824-14.1243896,12.8971252
		c-5.3828125,3.5526123-11.0024414,6.4162598-16.8803711,8.6124268c-5.8780518,2.196167-11.8421631,3.7894897-17.9139404,4.7368469
		c-6.0717773,0.9904175-11.8205566,1.4641113-17.2463379,1.4641113c-9.9473877,0-18.5814209-1.528717-25.8588867-4.5646057
		c-7.3205566-3.0143433-13.3492432-6.9760742-18.1291504-11.7990417
		c-4.7799072-4.8660278-8.2895508-10.2918396-10.550293-16.2774963c-2.2607422-6.028717-3.4018555-12.0574188-3.4018555-18.1291809
		c0-4.6507263,0.6243896-8.9354095,1.8516846-12.8755951c1.2271729-3.9402008,2.7989502-7.4712982,4.7368164-10.5717773
		c1.9377441-3.1004791,4.177002-5.7703247,6.6745605-8.0310974c2.5407715-2.2607574,5.1459961-4.0478516,7.8588867-5.3397064
		c11.1101074-19.8947449,20.4760742-39.5526276,28.0981445-58.9952087
		c7.6219482-19.4425812,14.5334473-38.9928207,20.734375-58.6291809L1468.2701416,87.007164z M1360.72229,240.8683929
		c0,9.3014374,1.8302002,16.2559662,5.5335693,20.8205719c3.6602783,4.6076355,9.9042969,6.8899536,18.6889648,6.8899536
		c4.392334,0,8.6555176-0.6028748,12.7894287-1.8516846c4.1340332-1.2057495,7.8157959-3.2727356,11.0454102-6.2009583
		c3.2297363-2.8851624,5.8134766-6.6746368,7.7512207-11.3253479c1.9378662-4.6507263,2.9067383-10.4641113,2.9067383-17.4401855
		c0-3.3588562-0.0861816-6.6100616-0.3013916-9.7751312c-0.1723633-3.1650696-0.4091797-6.5239105-0.6674805-10.0765533
		c-0.2584229-3.5526276-0.6243896-7.5358734-1.0550537-11.9282227c-0.4736328-4.3923492-0.9904785-9.4952087-1.550293-15.308609
		c-0.6027832-5.8134003-1.2056885-12.5310974-1.8516846-20.1531067c-0.645874-7.6220093-1.3564453-16.5358887-2.1314697-26.7416229
		c-4.0048828,12.9186554-8.7200928,25.4497528-14.1459961,37.5932922
		c-5.4257812,12.1435394-11.4329834,24.6100464-18.0214844,37.3995209c2.5837402,1.421051,4.7583008,3.22966,6.480835,5.425827
		c1.7655029,2.1961823,2.6268311,4.9736938,2.6268311,8.3325348c0,2.4545593-0.3875732,4.8444977-1.1627197,7.1698608
		s-1.9377441,4.4354095-3.4880371,6.2870789c-1.550293,1.8947449-3.4019775,3.3803864-5.5119629,4.4784698
		c-2.1530762,1.0980835-4.5645752,1.6363678-7.2774658,1.6363678c-2.196167,0-4.2631836-0.3229675-6.2010498-0.9689026
		C1363.2414551,244.485611,1361.7558594,243.0645599,1360.72229,240.8683929z"/>
</g>
</svg>
