<?xml version="1.0" encoding="utf-8"?>
<!-- Generator: Adobe Illustrator 18.0.0, SVG Export Plug-In . SVG Version: 6.00 Build 0)  -->
<!DOCTYPE svg PUBLIC "-//W3C//DTD SVG 1.1//EN" "http://www.w3.org/Graphics/SVG/1.1/DTD/svg11.dtd">
<svg version="1.1" id="Layer_1" xmlns="http://www.w3.org/2000/svg" xmlns:xlink="http://www.w3.org/1999/xlink" x="0px" y="0px"
	 width="100.5px" height="39px" viewBox="0 0 100.5 39" enable-background="new 0 0 100.5 39" xml:space="preserve">
<g>
	<path d="M53.9,23.4c0.9,1.1,1.7,2.1,2.5,3.1c-2.9,3.3-8.8,4.1-12.8,0.4c-4-3.7-3.9-9.9,0.1-13.6c4.2-3.8,10.1-2.6,12.7,0.5
		c-0.8,1-1.7,2-2.5,3c-2.9-2.4-5.9-2.5-7.9-0.2c-1.8,2.1-1.7,5.3,0.3,7.2C48.1,25.6,51.5,26,53.9,23.4z"/>
	<path d="M85.5,22.3c0,3.9-3.1,7-7,7c-3.8,0-6.9-3.1-7-7c0-3.9,3.1-7,7-7C82.4,15.3,85.5,18.4,85.5,22.3z M78.6,19.2
		c-1.7,0-3.1,1.3-3.1,3c0,1.7,1.4,3.1,3.1,3.1c1.7,0,3.1-1.4,3.1-3.1C81.7,20.6,80.3,19.3,78.6,19.2z"/>
	<path d="M70.7,22.3c0,3.9-3.2,7-7,7c-3.9,0-6.9-3.2-6.9-7.1c0-3.8,3.1-6.9,7-6.9C67.6,15.3,70.7,18.4,70.7,22.3z M63.7,19.2
		c-1.7,0-3.1,1.4-3.1,3c0,1.7,1.4,3.1,3,3.1c1.7,0,3.1-1.4,3.1-3.1C66.7,20.6,65.4,19.2,63.7,19.2z"/>
	<polygon points="86.7,10.9 90.5,10.9 90.5,19.5 94.2,15.3 99.6,15.3 94.2,21.3 100.5,29.3 95.4,29.3 91.4,24.4 90.5,25.4 
		90.5,29.3 86.7,29.3 	"/>
	<path d="M15.3,15.2c1.4,0,2.7,0,4.1,0c0.1,0.2,0.1,0.4,0.2,0.7c1.7-1.2,3.5-1.2,5.4-0.5c-0.3,1.6-0.6,3.2-0.9,4.8
		c-0.6-0.1-1.2-0.3-1.8-0.3c-1.7-0.1-2.6,0.8-2.6,2.5c0,2.1,0,4.2,0,6.3c0,0.2,0,0.5,0,0.7c-1.5,0-2.9,0-4.4,0
		C15.3,24.7,15.3,19.9,15.3,15.2z M15.8,15.6c0,4.5,0,8.9,0,13.4c1.2,0,2.3,0,3.5,0c0-0.3,0-0.6,0-0.9c0-2,0-4.1,0-6.1
		c0-1.5,0.9-2.5,2.5-2.7c0.7-0.1,1.4,0.1,2.1,0.1c0.2-1.1,0.4-2.5,0.6-3.8c-2-0.7-3.8-0.3-5.3,1.2c-0.1-0.5-0.1-0.8-0.2-1.2
		C18,15.6,16.9,15.6,15.8,15.6z"/>
	<path d="M4.5,24.2c0,1.8,0,3.5,0,5.3c-1.5,0-3,0-4.5,0c0-6.6,0-13.2,0-19.9c0.2,0,0.5,0,0.7,0c2,0,4.1,0,6.1,0
		c3.9,0,7.1,3.2,7.2,7.1c0.1,4.1-3,7.4-7,7.5C6.2,24.2,5.4,24.2,4.5,24.2z M4,23.7c1,0,1.9,0,2.8,0c3.5-0.1,6.5-2.8,6.7-6.4
		c0.2-3.6-2.2-6.8-5.7-7.2C5.7,9.8,3.5,10,1.4,10c-0.3,0-0.6,0-1,0c0,6.4,0,12.7,0,19c1.2,0,2.4,0,3.6,0C4,27.2,4,25.5,4,23.7z"/>
	<path d="M4.1,13.6c1.1,0,2.2-0.1,3.3,0c1.5,0.2,2.6,1.6,2.6,3.2c0,1.5-1,2.9-2.5,3.2c-1.1,0.2-2.2,0-3.4,0
		C4.1,17.9,4.1,15.8,4.1,13.6z M4.5,19.6c0.8,0,1.5,0,2.3,0c1.3-0.1,2.4-1.1,2.6-2.3c0.2-1.4-0.6-2.8-2-3.1C6.5,14,5.5,14.1,4.5,14
		C4.5,15.9,4.5,17.7,4.5,19.6z"/>
	<path d="M35.8,22.3c0,1.8-1.4,3.3-3.3,3.3c-1.8,0-3.3-1.5-3.3-3.3c0-1.8,1.5-3.3,3.3-3.3C34.3,19,35.7,20.5,35.8,22.3z M35.3,22.3
		c0-1.6-1.2-2.8-2.8-2.8c-1.6,0-2.9,1.3-2.8,2.9c0,1.6,1.3,2.8,2.8,2.8C34.1,25.1,35.3,23.9,35.3,22.3z"/>
	<path d="M32.4,29.5c-4,0-7.1-3.2-7.2-7.2c0-4,3.2-7.3,7.2-7.3c4,0,7.2,3.2,7.2,7.3C39.7,26.4,36.5,29.5,32.4,29.5z M32.4,15.6
		c-3.7,0-6.7,3-6.7,6.8c0,3.7,3,6.7,6.7,6.7c3.7,0,6.7-3,6.7-6.8C39.2,18.6,36.2,15.5,32.4,15.6z"/>
</g>
</svg>
