<?xml version="1.0" encoding="utf-8"?>
<!-- Generator: Adobe Illustrator 18.0.0, SVG Export Plug-In . SVG Version: 6.00 Build 0)  -->
<!DOCTYPE svg PUBLIC "-//W3C//DTD SVG 1.1//EN" "http://www.w3.org/Graphics/SVG/1.1/DTD/svg11.dtd">
<svg version="1.1" id="Layer_1" xmlns="http://www.w3.org/2000/svg" xmlns:xlink="http://www.w3.org/1999/xlink" x="0px" y="0px"
	 width="126.3px" height="39px" viewBox="36.8 1146.7 126.3 39" enable-background="new 36.8 1146.7 126.3 39" xml:space="preserve"
	>
<g>
	<path d="M59.9,1171.5v-6.4h-5.2v6.4H59.9z M57.2,1164.5c1.5,0,2.6-0.7,2.6-1.5c0-0.8-1.2-1.5-2.6-1.5c-1.5,0-2.6,0.7-2.6,1.5
		C54.6,1163.8,55.8,1164.5,57.2,1164.5z M148.4,1171.5v-6.4h-5.2v6.4H148.4z M145.8,1164.5c1.5,0,2.6-0.7,2.6-1.5
		c0-0.8-1.2-1.5-2.6-1.5c-1.5,0-2.6,0.7-2.6,1.5C143.1,1163.8,144.3,1164.5,145.8,1164.5z M84.5,1161.7v9.8h5.3v-3.2
		c0-0.7,0.6-1.1,1.2-1.1c0.6,0,1.1-0.2,1.1,1.2v3.1h5v-4.1c0-1.1-0.4-2.6-3.1-2.6c-2,0-3.5,0.5-4.2,0.9v-4L84.5,1161.7L84.5,1161.7z
		 M61.9,1165.1v2.1h1.7v2c0,0.9,0.7,2.2,3.1,2.2c2.4,0,3.2-0.5,4-0.8v-1.5c-0.4,0.1-2.2,0.9-2.2-0.6v-1.3h2.2v-2.1h-2.2v-2h-5v2
		H61.9L61.9,1165.1z M82.8,1165.7c-1.2-0.7-2.6-1-4.6-1c-2.1,0-5.8,0.9-5.8,3.5c0,2.6,3.3,3.5,5.4,3.5c2.1,0,4.6-0.5,5.1-0.8v-1.8
		c-0.6,0.4-5.1,1.2-5.1-0.8c0-1.1,1.8-1.4,2.3-1.4s2.3,0.2,2.8,0.6V1165.7L82.8,1165.7z M112,1165.1v6.4h5.3v-3.2
		c0-0.7,0.6-1.2,1.2-1.2c1,0,1.1,0.1,1.1,1.3v3.1h5v-4.1c0-1.2-0.6-2.7-3.2-2.7c-1.8,0-3.5,0.6-4,0.9v-0.6H112L112,1165.1z
		 M136.8,1160.7H130c0.3,0.1,0.8,0.9,0.7,1.2l-5.2,9.5h2.9l1.2-2.4h4.5l1.2,2.4h6.7L136.8,1160.7L136.8,1160.7z M130.6,1167.1
		l1.4-2.8l1.2,2.8H130.6z M158.1,1161.7v3.6c-0.7-0.3-2.2-0.6-3.1-0.6c-1.5,0-4.8,0.5-4.8,3.3c0,3,3.2,3.5,4.5,3.5
		c1.3,0,2.7-0.2,3.4-0.6v0.6h5v-9.8H158.1L158.1,1161.7z M158.1,1168.4c0,0.2-0.5,0.6-1.1,0.6c-0.5,0-1.8,0.1-1.8-1.1
		c0-0.9,1.3-1.2,1.7-1.2c0.4,0,1.1,0.1,1.1,0.7L158.1,1168.4L158.1,1168.4z M105.8,1169.8c-0.8,0-1.8-0.2-2.2-1.3h7.1
		c0-1.5-0.6-4.2-5.9-4.2c-3.2,0-6.3,1.1-6.4,3.7c0,2.6,3.4,3.5,6.6,3.5s4.6-0.5,5.1-0.8l0.3-1.5
		C109.8,1169.5,108.2,1169.9,105.8,1169.8z M104.8,1166c0.7,0,1,0.3,1,1h-2.2C103.7,1166.5,104.1,1166,104.8,1166z M36.8,1160.7
		v10.8h5.6v-3.3c0.4,0,1.3-0.3,2,0.8l1.6,2.5h6.9l-3.1-4.9c-0.4-0.6-0.6-1.2-2.2-1.4l4-4.5h-4l-3,3.8c-0.3,0.4-0.2,0.8-2.1,0.8v-4.6
		L36.8,1160.7L36.8,1160.7L36.8,1160.7z"/>
</g>
</svg>
