<?xml version="1.0" encoding="utf-8"?>
<!-- Generator: Adobe Illustrator 18.0.0, SVG Export Plug-In . SVG Version: 6.00 Build 0)  -->
<!DOCTYPE svg PUBLIC "-//W3C//DTD SVG 1.1//EN" "http://www.w3.org/Graphics/SVG/1.1/DTD/svg11.dtd">
<svg version="1.1" id="Layer_1" xmlns="http://www.w3.org/2000/svg" xmlns:xlink="http://www.w3.org/1999/xlink" x="0px" y="0px"
	 width="73px" height="39px" viewBox="0 0 73 39" enable-background="new 0 0 73 39" xml:space="preserve">
<g>
	<path d="M19.1,30.5c-0.2,0-0.4,0-0.7-0.1c-1.5-0.2-2.9-0.8-4-1.9c-0.8-0.8-1.3-1.7-1.6-2.7c-0.3-1-0.5-2-0.5-3
		c0-1.2,0.1-2.3,0.6-3.4c0.8-2,2.2-3.4,4.2-4.1c0.7-0.2,1.3-0.3,2-0.4c1.2-0.1,2.4,0.1,3.6,0.7c1.7,0.8,2.8,2.1,3.5,3.8
		c0.4,1.1,0.6,2.3,0.5,3.5c0,0.1,0,0.3,0,0.4c0,0.1,0,0.1-0.1,0.1c0,0-0.1,0-0.1,0c-3.5,0-7.1,0-10.6,0c-0.1,0-0.1,0-0.2,0
		c0,0.2,0,0.5,0.1,0.7c0.1,0.7,0.3,1.4,0.7,2c0.6,0.9,1.4,1.5,2.5,1.6c0.8,0.1,1.5,0.1,2.2-0.1c1-0.3,1.6-1,2-1.9
		c0-0.1,0.1-0.2,0.1-0.3c0-0.1,0.1-0.1,0.1-0.1c1,0,2,0,2.9,0c0,0,0,0,0.1,0c0,0.1,0,0.2-0.1,0.2c-0.3,1.1-0.8,2.1-1.6,2.9
		c-0.9,0.8-1.9,1.4-3,1.7c-0.5,0.1-1,0.2-1.5,0.2c0,0-0.1,0-0.1,0C19.7,30.5,19.4,30.5,19.1,30.5z M23.2,20.8c0-0.1-0.1-0.3-0.1-0.4
		c-0.3-1.2-1-2-2.1-2.5c-0.9-0.4-1.9-0.4-2.8-0.1c-1.5,0.4-2.4,1.6-2.6,3C18.1,20.8,20.7,20.8,23.2,20.8z"/>
	<path d="M65.6,30.5c-0.2,0-0.5,0-0.7-0.1c-2.7-0.3-4.7-1.8-5.7-4.4c-0.3-0.9-0.5-1.8-0.6-2.7c-0.1-1.1,0-2.1,0.3-3.1
		c0.3-1.2,0.9-2.3,1.8-3.1c1-1,2.1-1.6,3.4-1.8c1.3-0.3,2.7-0.2,4,0.2c2.1,0.7,3.5,2.1,4.3,4.2c0.4,1.1,0.6,2.3,0.5,3.5
		c0,0.1,0,0.3,0,0.4c-0.1,0-0.1,0-0.2,0c-3.6,0-7.1,0-10.7,0c-0.1,0-0.2,0-0.1,0.1c0,0.8,0.2,1.5,0.5,2.2c0.6,1.2,1.5,1.8,2.8,2
		c0.8,0.1,1.6,0.1,2.3-0.2c0.9-0.3,1.5-1,1.9-1.8c0.1-0.1,0.1-0.2,0.1-0.4c0,0,0.1-0.1,0.1-0.1c1,0,2,0,3,0c0,0,0,0,0,0
		c0,0,0,0.1,0,0.1c-0.6,2.5-2.3,4-4.7,4.7c-0.5,0.1-1,0.2-1.5,0.2c0,0-0.1,0-0.1,0C66,30.5,65.8,30.5,65.6,30.5z M69.5,20.8
		c0-0.2-0.1-0.3-0.1-0.5c-0.3-1.1-1-1.9-2-2.4c-1.2-0.5-2.5-0.4-3.6,0.2c-1.1,0.5-1.6,1.5-1.8,2.7C64.5,20.8,67,20.8,69.5,20.8z"/>
	<path d="M41.6,8.5c-0.3,0.3-0.7,0.7-1,1c-0.9,0.9-1.8,1.7-2.7,2.6c-0.6,0.6-1.3,1.2-1.9,1.9c0,0-0.1,0.1-0.1,0.1
		c2.1,3.2,4.2,6.3,6.3,9.5c-0.1,0-0.1,0-0.1,0c-1.3,0-2.5,0-3.8,0c-0.1,0-0.1,0-0.2-0.1c-1.5-2.3-3-4.7-4.4-7c0,0,0-0.1-0.1-0.1
		c-0.2,0.2-0.4,0.4-0.6,0.5c-0.4,0.4-0.9,0.9-1.3,1.3c-0.1,0.1-0.1,0.1-0.1,0.2c0,1.7,0,3.4,0,5.1c0,0,0,0.1,0,0.2
		c-1.1,0-2.2,0-3.3,0c0-5,0-9.9,0-14.9c1.1,0,2.2,0,3.3,0c0,2,0,4,0,6c0.2-0.2,0.4-0.4,0.6-0.6c0.4-0.4,0.8-0.8,1.2-1.3
		c1.1-1.1,2.2-2.2,3.2-3.3c0.2-0.2,0.5-0.5,0.7-0.7c0,0,0.1-0.1,0.1-0.1C38.9,8.5,40.3,8.5,41.6,8.5z"/>
	<path d="M0,8.6C0,8.6,0.1,8.6,0,8.6c1.2,0,2.3,0,3.4,0c0,0,0.1,0,0.1,0c0,4.1,0,8.2,0,12.3c2.4,0,4.7,0,7.1,0c0,0.9,0,1.8,0,2.6
		c0,0-0.1,0-0.1,0c-3.5,0-6.9,0-10.4,0c0,0,0,0-0.1,0C0,18.5,0,13.5,0,8.6z"/>
	<path d="M26.5,8.5c-0.2,0.2-0.4,0.4-0.6,0.6c-0.8,0.8-1.6,1.5-2.4,2.3c-0.6,0.6-1.2,1.2-1.9,1.8c0,0-0.1,0.1-0.1,0.1
		c-1.2,0-2.4,0-3.6,0c0,0,0,0-0.1,0c0.1-0.1,0.2-0.2,0.3-0.3c0.6-0.6,1.3-1.3,1.9-1.9c0.8-0.8,1.6-1.6,2.4-2.4c0,0,0-0.1,0.1-0.1
		C23.8,8.5,25.1,8.5,26.5,8.5z"/>
	<path d="M72.4,8.5c-0.2,0.2-0.4,0.4-0.6,0.6c-0.8,0.8-1.7,1.6-2.5,2.4c-0.6,0.6-1.2,1.1-1.8,1.7c-0.1,0.1-0.1,0.1-0.2,0.1
		c-1.2,0-2.3,0-3.5,0c0,0-0.1,0-0.1,0c0.1-0.1,0.2-0.2,0.3-0.3c0.8-0.8,1.6-1.7,2.5-2.5c0.6-0.6,1.3-1.3,1.9-1.9c0,0,0-0.1,0.1-0.1
		C69.7,8.5,71.1,8.5,72.4,8.5z"/>
	<path d="M56.9,23.5c-1.1,0-2.1,0-3.2,0c0-0.7,0-1.4,0-2.1c0,0,0,0,0,0c0,0,0,0-0.1,0.1c-0.8,1.3-1.9,2-3.4,2.3
		c-0.5,0.1-1,0.1-1.5,0.1c-0.7,0-1.4-0.2-2-0.4c-1.3-0.5-2.1-1.5-2.5-2.9c-0.2-0.7-0.3-1.5-0.3-2.3c0-3.2,0-6.4,0-9.7
		c0,0,0-0.1,0-0.1c1.1,0,2.2,0,3.3,0c0,0.1,0,0.1,0,0.2c0,3,0,6,0,9c0,0.6,0.1,1.2,0.2,1.7c0.2,0.6,0.5,1.2,1.1,1.5
		c0.3,0.2,0.7,0.3,1.1,0.3c0.7,0.1,1.3,0,2-0.2c1-0.3,1.6-1,1.9-2c0.2-0.6,0.3-1.2,0.3-1.8c0-2.9,0-5.7,0-8.6c0,0,0-0.1,0-0.2
		c1.1,0,2.2,0,3.3,0C56.9,13.5,56.9,18.5,56.9,23.5z"/>
</g>
</svg>
