<?xml version="1.0" encoding="utf-8"?>
<!-- Generator: Adobe Illustrator 18.0.0, SVG Export Plug-In . SVG Version: 6.00 Build 0)  -->
<!DOCTYPE svg PUBLIC "-//W3C//DTD SVG 1.1//EN" "http://www.w3.org/Graphics/SVG/1.1/DTD/svg11.dtd">
<svg version="1.1" id="Artwork" xmlns="http://www.w3.org/2000/svg" xmlns:xlink="http://www.w3.org/1999/xlink" x="0px" y="0px"
	 width="27.8px" height="39px" viewBox="0 0.6 27.8 39" enable-background="new 0 0.6 27.8 39" xml:space="preserve">
<g>
	<g>
		<path d="M8.1,4.3v7.4c0,5.5,1.7,9.2,7,9.2c5,0,6.9-3.9,6.9-9.1V7.8c0-2.1-0.1-6.1-0.7-7.1c0,0-0.1-0.1-0.1-0.1H8.6
			C8.2,1.2,8.1,2.2,8.1,4.3z"/>
		<path d="M24,0.6c-0.1,0.1-0.1,0.2-0.2,0.2c-0.5,1.1-0.5,5.1-0.5,7v3.9c0,3-0.5,6.1-2.4,8.2c-1.5,1.6-4,2.5-6.5,2.5
			C12,22.4,9.7,22,8,20.5c-1.8-1.5-2.7-4-2.7-8.1V4.3c0-2.1,0-3.2-0.5-3.7H0v27.8h27.8V0.6H24z"/>
	</g>
	<g>
		<path d="M3.2,39.5V39c-0.3,0.4-0.8,0.6-1.4,0.6C0.5,39.6,0,38.7,0,37v-4.5h1.3v4.3c0,1.2,0.2,1.6,0.9,1.6c0.4,0,0.8-0.2,1-0.6
			v-5.3h1.3v7L3.2,39.5L3.2,39.5z"/>
		<path d="M11.9,39.4v-4.3c0-1.2-0.1-1.6-0.7-1.6c-0.4,0-0.8,0.2-1,0.6v5.3H8.8v-4.3c0-1.2-0.1-1.6-0.7-1.6c-0.4,0-0.8,0.2-1,0.6
			v5.3H5.7v-7H7v0.5c0.3-0.4,0.7-0.6,1.3-0.6c0.7,0,1.1,0.2,1.4,0.7c0.5-0.6,1-0.7,1.6-0.7c1.4,0,1.8,0.9,1.8,2.8v4.4H11.9z"/>
		<path d="M17.8,36.1c0,1.7-0.3,2.3-1,2.3c-0.4,0-0.8-0.2-1.1-0.6v-3.7c0.2-0.4,0.6-0.6,1-0.6C17.4,33.5,17.8,34.2,17.8,36.1z
			 M19.1,36c0-2.8-0.8-3.7-2.1-3.7c-0.6,0-1,0.3-1.3,0.6v-3.2l-1.3,0.7v9.1h1.3v-0.4c0.3,0.4,0.7,0.5,1.2,0.5
			C18.2,39.6,19.1,38.4,19.1,36z"/>
		<path d="M23.3,33.8c-0.3-0.1-0.5-0.2-0.9-0.2c-0.4,0-0.7,0.1-1,0.6v5.3h-1.3v-7h1.3v0.5c0.3-0.4,0.7-0.6,1.2-0.6
			c0.4,0,0.7,0.1,1,0.2L23.3,33.8z"/>
		<path d="M3.2,39.5V39c-0.3,0.4-0.8,0.6-1.4,0.6C0.5,39.6,0,38.7,0,37v-4.5h1.3v4.3c0,1.2,0.2,1.6,0.9,1.6c0.4,0,0.8-0.2,1-0.6
			v-5.3h1.3v7L3.2,39.5L3.2,39.5z"/>
		<path d="M11.9,39.4v-4.3c0-1.2-0.1-1.6-0.7-1.6c-0.4,0-0.8,0.2-1,0.6v5.3H8.8v-4.3c0-1.2-0.1-1.6-0.7-1.6c-0.4,0-0.8,0.2-1,0.6
			v5.3H5.7v-7H7v0.5c0.3-0.4,0.7-0.6,1.3-0.6c0.7,0,1.1,0.2,1.4,0.7c0.5-0.6,1-0.7,1.6-0.7c1.4,0,1.8,0.9,1.8,2.8v4.4H11.9z"/>
		<path d="M17.8,36.1c0,1.7-0.3,2.3-1,2.3c-0.4,0-0.8-0.2-1.1-0.6v-3.7c0.2-0.4,0.6-0.6,1-0.6C17.4,33.5,17.8,34.2,17.8,36.1z
			 M19.1,36c0-2.8-0.8-3.7-2.1-3.7c-0.6,0-1,0.3-1.3,0.6v-3.2l-1.3,0.7v9.1h1.3v-0.4c0.3,0.4,0.7,0.5,1.2,0.5
			C18.2,39.6,19.1,38.4,19.1,36z"/>
		<path d="M23.3,33.8c-0.3-0.1-0.5-0.2-0.9-0.2c-0.4,0-0.7,0.1-1,0.6v5.3h-1.3v-7h1.3v0.5c0.3-0.4,0.7-0.6,1.2-0.6
			c0.4,0,0.7,0.1,1,0.2L23.3,33.8z"/>
		<path d="M26.6,37.8c-0.2,0.4-0.6,0.7-1.2,0.7c-0.5,0-0.9-0.4-0.9-1.2c0-0.8,0.4-1.1,1-1.1c0.5,0,0.7,0.1,1.1,0.3L26.6,37.8
			L26.6,37.8z M27.8,39.5v-5.1c0-1.6-0.6-2.1-2.1-2.1c-0.6,0-1.2,0.2-1.4,0.4L24,33.8c0.3-0.2,0.9-0.4,1.6-0.4c0.7,0,0.9,0.3,0.9,1
			v0.7c-0.3-0.1-0.6-0.2-1.1-0.2c-1.3,0-2.3,0.8-2.3,2.3c0,1.6,0.9,2.4,1.9,2.4c0.6,0,1.1-0.2,1.4-0.6v0.5L27.8,39.5L27.8,39.5z"/>
	</g>
</g>
</svg>
