<?xml version="1.0" encoding="utf-8"?>
<!-- Generator: Adobe Illustrator 18.0.0, SVG Export Plug-In . SVG Version: 6.00 Build 0)  -->
<!DOCTYPE svg PUBLIC "-//W3C//DTD SVG 1.1//EN" "http://www.w3.org/Graphics/SVG/1.1/DTD/svg11.dtd">
<svg version="1.1" id="Layer_1" xmlns="http://www.w3.org/2000/svg" xmlns:xlink="http://www.w3.org/1999/xlink" x="0px" y="0px"
	 width="93.1px" height="39px" viewBox="0 0 93.1 39" enable-background="new 0 0 93.1 39" xml:space="preserve">
<g>
	<path d="M71.1,30.5c0-7.3,0-14.7,0-22c7.3,0,14.7,0,22,0c0,7.3,0,14.7,0,22C85.8,30.5,78.4,30.5,71.1,30.5z M84.9,13.6
		c0,0.4,0,0.7,0,1c0,2,0,4.1,0,6.1c-0.1,1.8-1.1,2.6-2.7,2.6c-1.6-0.1-2.5-1-2.5-2.7c0-2,0-3.9,0-5.9c0-0.3,0-0.6,0-1
		c-1,0-1.9,0-2.8,0c0,0.2,0,0.2,0,0.3c0,2.3-0.1,4.7,0,7c0.1,2.7,1.5,4.2,4,4.7c0.6,0.1,1.3,0.1,1.9,0.1c3.1-0.1,4.9-2,5-5.1
		c0-1.8,0-3.7,0-5.5c0-0.5,0-0.9,0-1.4C86.7,13.6,85.8,13.6,84.9,13.6z"/>
	<path d="M23.7,8.5c7.3,0,14.7,0,22,0c0,7.3,0,14.7,0,22c-7.3,0-14.7,0-22,0C23.7,23.2,23.7,15.8,23.7,8.5z M34.8,13
		c-3.7,0-6.6,2.9-6.6,6.6c0,3.8,2.9,6.6,6.6,6.6c3.7,0,6.5-2.9,6.5-6.7C41.3,15.8,38.5,13,34.8,13z"/>
	<path d="M38.5,19.6c0,2.2-1.6,4-3.7,4c-2.1,0-3.7-1.8-3.7-4c0-2.2,1.6-4,3.7-4C36.9,15.6,38.5,17.3,38.5,19.6z"/>
	<path fill="#666666" d="M0,8.5c0,7.4,0,14.7,0,22c7.3,0,14.7,0,22,0c0-7.4,0-14.7,0-22C14.6,8.5,7.3,8.5,0,8.5z M16.4,15.9l-7,7.6
		h7v2.2H5.8v-2.2l7-7.6H6v-2.2h10.4V15.9z"/>
	<path fill="#666666" d="M47.4,8.5c0,7.4,0,14.7,0,22c7.3,0,14.6,0,22,0c0-7.4,0-14.7,0-22C62,8.5,54.7,8.5,47.4,8.5z M60.5,25.7
		l-3.8-5.2l-1.3,1.4v3.8h-2.5v-12h2.5v5.3l4.9-5.3h3.1l-4.9,5.1l5.1,6.9H60.5z"/>
</g>
</svg>
