<?xml version="1.0" encoding="utf-8"?>
<!-- Generator: Adobe Illustrator 18.0.0, SVG Export Plug-In . SVG Version: 6.00 Build 0)  -->
<!DOCTYPE svg PUBLIC "-//W3C//DTD SVG 1.1//EN" "http://www.w3.org/Graphics/SVG/1.1/DTD/svg11.dtd">
<svg version="1.1" id="Layer_1" xmlns="http://www.w3.org/2000/svg" xmlns:xlink="http://www.w3.org/1999/xlink" x="0px" y="0px"
	 width="66.5px" height="39px" viewBox="0 0 66.5 39" enable-background="new 0 0 66.5 39" xml:space="preserve">
<g>
	<g>
		<path d="M66.5,20.2c-0.1,0.4-0.2,0.8-0.3,1.2c-0.5,1.7-1.6,3-2.9,4.1c-2.2,2-4.8,3.3-7.6,4.3c-3.6,1.4-7.3,2.3-11.1,2.8
			c-4.4,0.7-8.9,0.9-13.4,0.8c-6.2-0.2-12.3-1-18.3-2.9c-3-1-5.8-2.2-8.4-4c-1.6-1.2-3.1-2.5-4-4.3c-0.3-0.7-0.5-1.4-0.7-2.1
			c0-0.5,0-0.9,0-1.4c0.1-0.4,0.2-0.8,0.3-1.1c0.6-1.9,1.8-3.3,3.3-4.5c2.5-2.1,5.4-3.4,8.5-4.5c3.7-1.3,7.5-2.1,11.4-2.6
			c4.5-0.6,9.1-0.7,13.7-0.5c4.2,0.2,8.3,0.7,12.4,1.7c0,0,0.1,0,0.2,0.1c-0.1,0.1-0.1,0.2-0.2,0.2c-0.6,0.7-0.7,1.5-0.2,2.3
			c0.6,0.9,1.4,1.3,2.4,1.4c0.3,0,0.6,0,0.9,0.1c0.4,0.1,0.5,0.3,0.3,0.6c-0.2,0.3-0.5,0.6-0.8,0.8c-0.6,0.3-1.3,0.4-2,0.7
			c-0.4,0.1-0.8,0.2-1.1,0.4c-0.1,0.1-0.3,0.3-0.3,0.5c0,0.1,0.2,0.3,0.4,0.3c0.6,0,1.3,0,1.9-0.1c1.1-0.2,2.1-0.5,3-1.1
			c1.4-0.9,2.5-1.9,2.9-3.6c2.8,1.3,5.4,2.7,7.5,5c1,1.1,1.7,2.4,1.9,3.9c0,0,0,0.1,0.1,0.1C66.5,19.3,66.5,19.7,66.5,20.2z
			 M27.1,24.3c0-1.9,0.1-3.8,0-5.7c-0.1-1.1-0.8-1.9-1.8-2.4c-0.4-0.1-0.8-0.2-1.2-0.3c-1.5-0.2-2.9,0.2-3.9,1.4
			c0,0-0.1,0.1-0.2,0.2c0-1.5,0-3,0-4.5c0-0.3,0,0.1,0-0.4c-1.3,0-4.2,0-4.2,0s0.4,0-0.3,0c0,3.9,0,7.8,0,11.7c1.5,0,3,0,4.5,0
			c0-0.2,0-0.3,0-0.5c0-1.2,0-2.3,0-3.5c0-0.3,0-0.7,0.1-1c0.2-0.7,0.8-1,1.5-0.9c0.6,0.1,1,0.4,1,1.2c0,0.2,0,0.5,0,0.7
			c0,1.2,0,2.5,0,3.7c0,0.1,0,0.3,0,0.4C24.2,24.3,25.7,24.3,27.1,24.3z M50.6,16.1c0,2.7,0,5.4,0,8.1c1.5,0,3,0,4.5,0
			c0-0.2,0-0.3,0-0.4c0-1.2,0-2.4,0-3.6c0-0.3,0-0.6,0.1-0.9c0.2-0.7,0.7-1.1,1.5-1c0.7,0.1,1,0.5,1.1,1.2c0,0.2,0,0.4,0,0.5
			c0,1.2,0,2.5,0,3.7c0,0.2,0,0.3,0,0.4c1.5,0,3,0,4.5,0c0-1.8,0-3.6,0-5.3c0-1.1-0.5-2-1.6-2.6c-1.4-0.8-4.3-0.8-5.5,1
			c0,0-0.1,0.1-0.1,0.1c0-0.5-0.1-0.9-0.1-1.3C53.5,16.1,52,16.1,50.6,16.1z M39.5,21.9c-1.4,0-2.8,0-4.3,0c-0.1,0-0.2,0.1-0.2,0.2
			c-0.2,0.3-0.4,0.5-0.8,0.6c-1.3,0.3-2.2-0.6-2-2c2.4,0,4.9,0,7.3,0c0.2-2.3-0.9-4-3-4.6c-1.9-0.6-3.8-0.6-5.7,0
			c-2.2,0.6-3.2,2.1-3.1,4.3c0.1,1.8,1.1,3.1,3.1,3.7c1.6,0.4,3.2,0.5,4.8,0.3c1-0.1,2-0.3,2.8-0.9C39,23.2,39.4,22.7,39.5,21.9z
			 M15,19.3c0-0.1,0-0.2,0-0.3c-0.1-1.4-0.9-2.2-2.1-2.7c-2.4-0.8-4.8-0.8-7.1,0c-1,0.3-1.8,1-2.2,2c-1,2.4,0.2,4.9,2.7,5.7
			c1.9,0.6,3.9,0.5,5.8,0c0.8-0.2,1.6-0.5,2.2-1.2c0.5-0.5,0.8-1.2,0.8-2c-1.5,0-2.9,0-4.4,0c0,0.1,0,0.2,0,0.3
			c-0.1,0.8-0.5,1.2-1.3,1.2c-0.7,0-1.1-0.3-1.3-1C8.1,21.4,8,21.2,8,21c-0.1-0.8-0.1-1.6,0.2-2.4c0.2-0.5,0.7-0.8,1.2-0.8
			c0.6,0,0.9,0.3,1.1,0.9c0.1,0.2,0.1,0.4,0.2,0.6C12.2,19.3,13.6,19.3,15,19.3z M47.8,14.5c0-0.6,0-1.2,0-1.8
			c0-0.1-0.1-0.2-0.2-0.2c-1.4-0.2-2.8-0.3-4.2-0.1c-1.6,0.3-2.4,1.2-2.5,2.9c0,0.3,0,0.5,0,0.8c-0.5,0-0.9,0-1.3,0
			c0,0.8,0,1.5,0,2.3c0.4,0,0.8,0,1.3,0c0,2,0,3.9,0,5.8c1.5,0,3,0,4.5,0c0-2,0-3.9,0-5.8c0.7,0,1.5,0,2.2,0c0-0.8,0-1.5,0-2.3
			c-0.7,0-1.4,0-2.1,0c-0.1-1.1,0.2-1.5,1.2-1.6C47.1,14.5,47.4,14.5,47.8,14.5z"/>
		<path d="M35.1,19.2c-1,0-2,0-2.9,0c0-1.1,0.5-1.7,1.5-1.7C34.6,17.6,35.2,18.2,35.1,19.2z"/>
	</g>
</g>
</svg>
