<?xml version="1.0" encoding="utf-8"?>
<!-- Generator: Adobe Illustrator 18.0.0, SVG Export Plug-In . SVG Version: 6.00 Build 0)  -->
<!DOCTYPE svg PUBLIC "-//W3C//DTD SVG 1.1//EN" "http://www.w3.org/Graphics/SVG/1.1/DTD/svg11.dtd" [
	<!ENTITY ns_extend "http://ns.adobe.com/Extensibility/1.0/">
	<!ENTITY ns_ai "http://ns.adobe.com/AdobeIllustrator/10.0/">
	<!ENTITY ns_graphs "http://ns.adobe.com/Graphs/1.0/">
	<!ENTITY ns_vars "http://ns.adobe.com/Variables/1.0/">
	<!ENTITY ns_imrep "http://ns.adobe.com/ImageReplacement/1.0/">
	<!ENTITY ns_sfw "http://ns.adobe.com/SaveForWeb/1.0/">
	<!ENTITY ns_custom "http://ns.adobe.com/GenericCustomNamespace/1.0/">
	<!ENTITY ns_adobe_xpath "http://ns.adobe.com/XPath/1.0/">
]>
<svg version="1.1" id="Layer_1" xmlns:x="&ns_extend;" xmlns:i="&ns_ai;" xmlns:graph="&ns_graphs;"
	 xmlns="http://www.w3.org/2000/svg" xmlns:xlink="http://www.w3.org/1999/xlink" x="0px" y="0px" width="52.4px" height="17px"
	 viewBox="0 0 52.4 17" enable-background="new 0 0 52.4 17" xml:space="preserve">
<metadata>
	<sfw  xmlns="&ns_sfw;">
		<slices></slices>
		<sliceSourceBounds  width="52.4" height="17" y="27" x="-35" bottomLeftOrigin="true"></sliceSourceBounds>
	</sfw>
</metadata>
<g>
	<g>
		<polygon fill="#525252" points="22.716,16.717 18.44,16.717 21.112,0.294 25.388,0.294 		"/>
		<path fill="#525252" d="M14.843,0.294L10.766,11.59l-0.482-2.432l0,0.001L8.846,1.773c0,0-0.174-1.479-2.028-1.479H0.079L0,0.572
			C0,0.572,2.061,1,4.472,2.45l3.715,14.268h4.455l6.803-16.423H14.843z"/>
		<path fill="#525252" d="M48.474,16.717H52.4L48.977,0.294h-3.438c-1.587,0-1.974,1.224-1.974,1.224l-6.376,15.199h4.457
			l0.891-2.439h5.436L48.474,16.717z M43.769,10.908l2.247-6.146l1.264,6.146H43.769z"/>
		<path fill="#525252" d="M37.523,4.243l0.61-3.527c0,0-1.883-0.716-3.846-0.716c-2.122,0-7.161,0.928-7.161,5.437
			c0,4.243,5.914,4.296,5.914,6.524s-5.304,1.83-7.055,0.424l-0.636,3.687c0,0,1.909,0.928,4.827,0.928
			c2.917,0,7.32-1.511,7.32-5.623c0-4.27-5.967-4.668-5.967-6.524C31.53,2.997,35.694,3.235,37.523,4.243z"/>
	</g>
	<path fill="#ACACAC" d="M10.285,9.158L8.846,1.773c0,0-0.174-1.479-2.028-1.479H0.079L0,0.572c0,0,3.239,0.671,6.346,3.186
		C9.316,6.162,10.285,9.158,10.285,9.158z"/>
</g>
</svg>
