<?xml version="1.0" encoding="utf-8"?>
<!-- Generator: Adobe Illustrator 18.0.0, SVG Export Plug-In . SVG Version: 6.00 Build 0)  -->
<!DOCTYPE svg PUBLIC "-//W3C//DTD SVG 1.1//EN" "http://www.w3.org/Graphics/SVG/1.1/DTD/svg11.dtd" [
	<!ENTITY ns_extend "http://ns.adobe.com/Extensibility/1.0/">
	<!ENTITY ns_ai "http://ns.adobe.com/AdobeIllustrator/10.0/">
	<!ENTITY ns_graphs "http://ns.adobe.com/Graphs/1.0/">
	<!ENTITY ns_vars "http://ns.adobe.com/Variables/1.0/">
	<!ENTITY ns_imrep "http://ns.adobe.com/ImageReplacement/1.0/">
	<!ENTITY ns_sfw "http://ns.adobe.com/SaveForWeb/1.0/">
	<!ENTITY ns_custom "http://ns.adobe.com/GenericCustomNamespace/1.0/">
	<!ENTITY ns_adobe_xpath "http://ns.adobe.com/XPath/1.0/">
]>
<svg version="1.1" id="Layer_1" xmlns:x="&ns_extend;" xmlns:i="&ns_ai;" xmlns:graph="&ns_graphs;"
	 xmlns="http://www.w3.org/2000/svg" xmlns:xlink="http://www.w3.org/1999/xlink" x="0px" y="0px" width="60.044px" height="16px"
	 viewBox="0 0 60.044 16" enable-background="new 0 0 60.044 16" xml:space="preserve">
<metadata>
	<sfw  xmlns="&ns_sfw;">
		<slices></slices>
		<sliceSourceBounds  width="60.044" height="16" y="50" x="-132" bottomLeftOrigin="true"></sliceSourceBounds>
	</sfw>
</metadata>
<g id="XMLID_12_">
	<g id="XMLID_13_">
		<g id="XMLID_14_">
			<g id="XMLID_15_">
				<path id="XMLID_57_" fill="#3C3C3C" d="M7.744,4.375C7.489,6.05,6.208,6.05,4.97,6.05H4.265l0.494-3.13
					c0.029-0.189,0.193-0.328,0.384-0.328h0.323c0.843,0,1.639,0,2.05,0.481C7.762,3.36,7.838,3.786,7.744,4.375z M7.205,0.001
					h-4.67c-0.32,0-0.591,0.232-0.641,0.548L0.005,12.524c-0.038,0.236,0.145,0.449,0.385,0.449h2.23
					c0.32,0,0.591-0.232,0.641-0.548l0.509-3.23c0.049-0.316,0.322-0.548,0.641-0.548h1.478c3.076,0,4.852-1.489,5.316-4.439
					c0.209-1.291,0.009-2.305-0.595-3.015C9.946,0.413,8.768,0.001,7.205,0.001z"/>
				<path id="XMLID_54_" fill="#3C3C3C" d="M18.048,8.673c-0.216,1.278-1.23,2.135-2.523,2.135c-0.649,0-1.168-0.208-1.502-0.603
					c-0.331-0.392-0.456-0.95-0.351-1.571c0.201-1.267,1.233-2.152,2.506-2.152c0.635,0,1.151,0.211,1.491,0.609
					C18.01,7.493,18.146,8.055,18.048,8.673z M21.165,4.321h-2.236c-0.191,0-0.355,0.139-0.384,0.328l-0.099,0.626l-0.156-0.227
					c-0.484-0.703-1.564-0.938-2.641-0.938c-2.471,0-4.582,1.872-4.993,4.498c-0.214,1.31,0.09,2.562,0.833,3.436
					c0.682,0.803,1.657,1.138,2.817,1.138c1.991,0,3.096-1.28,3.096-1.28l-0.1,0.621c-0.038,0.238,0.145,0.451,0.384,0.451h2.015
					c0.32,0,0.591-0.232,0.641-0.548l1.209-7.654C21.587,4.534,21.404,4.321,21.165,4.321z"/>
				<path id="XMLID_33_" fill="#3C3C3C" d="M33.076,4.321h-2.247c-0.214,0-0.416,0.106-0.537,0.285l-3.1,4.566l-1.314-4.388
					c-0.083-0.275-0.336-0.463-0.623-0.463h-2.208c-0.268,0-0.455,0.262-0.369,0.515l2.475,7.265l-2.327,3.285
					C22.642,15.644,22.827,16,23.143,16h2.245c0.213,0,0.412-0.104,0.533-0.279l7.475-10.79C33.575,4.674,33.391,4.321,33.076,4.321
					z"/>
				<path id="XMLID_38_" fill="#7A7A7A" d="M41.056,4.375C40.801,6.05,39.521,6.05,38.282,6.05h-0.704l0.495-3.13
					c0.029-0.189,0.192-0.328,0.384-0.328h0.323c0.843,0,1.639,0,2.05,0.481C41.075,3.36,41.149,3.786,41.056,4.375z M40.517,0.001
					h-4.671c-0.319,0-0.591,0.232-0.641,0.548l-1.889,11.976c-0.038,0.236,0.145,0.449,0.384,0.449h2.397
					c0.223,0,0.413-0.162,0.448-0.384l0.536-3.395c0.049-0.316,0.322-0.548,0.641-0.548H39.2c3.077,0,4.852-1.489,5.316-4.439
					c0.21-1.291,0.008-2.305-0.596-3.015C43.257,0.413,42.08,0.001,40.517,0.001z"/>
				<path id="XMLID_21_" fill="#7A7A7A" d="M51.359,8.673c-0.214,1.278-1.23,2.135-2.523,2.135c-0.648,0-1.168-0.208-1.502-0.603
					c-0.331-0.392-0.455-0.95-0.351-1.571c0.203-1.267,1.233-2.152,2.506-2.152c0.635,0,1.151,0.211,1.491,0.609
					C51.323,7.493,51.458,8.055,51.359,8.673z M54.477,4.321h-2.235c-0.192,0-0.355,0.139-0.384,0.328l-0.099,0.626l-0.157-0.227
					c-0.484-0.703-1.563-0.938-2.641-0.938c-2.471,0-4.581,1.872-4.993,4.498c-0.213,1.31,0.089,2.562,0.832,3.436
					c0.683,0.803,1.657,1.138,2.817,1.138c1.991,0,3.096-1.28,3.096-1.28l-0.1,0.621c-0.038,0.238,0.145,0.451,0.385,0.451h2.014
					c0.319,0,0.591-0.232,0.641-0.548l1.209-7.654C54.899,4.534,54.716,4.321,54.477,4.321z"/>
				<path id="XMLID_28_" fill="#7A7A7A" d="M57.113,0.329l-1.917,12.195c-0.038,0.236,0.145,0.449,0.384,0.449h1.927
					c0.32,0,0.592-0.232,0.641-0.548l1.89-11.975C60.076,0.214,59.893,0,59.655,0h-2.158C57.306,0.001,57.142,0.14,57.113,0.329z"/>
			</g>
		</g>
	</g>
</g>
</svg>
