<?xml version="1.0" encoding="utf-8"?>
<!-- Generator: Adobe Illustrator 18.0.0, SVG Export Plug-In . SVG Version: 6.00 Build 0)  -->
<!DOCTYPE svg PUBLIC "-//W3C//DTD SVG 1.1//EN" "http://www.w3.org/Graphics/SVG/1.1/DTD/svg11.dtd" [
	<!ENTITY ns_extend "http://ns.adobe.com/Extensibility/1.0/">
	<!ENTITY ns_ai "http://ns.adobe.com/AdobeIllustrator/10.0/">
	<!ENTITY ns_graphs "http://ns.adobe.com/Graphs/1.0/">
	<!ENTITY ns_vars "http://ns.adobe.com/Variables/1.0/">
	<!ENTITY ns_imrep "http://ns.adobe.com/ImageReplacement/1.0/">
	<!ENTITY ns_sfw "http://ns.adobe.com/SaveForWeb/1.0/">
	<!ENTITY ns_custom "http://ns.adobe.com/GenericCustomNamespace/1.0/">
	<!ENTITY ns_adobe_xpath "http://ns.adobe.com/XPath/1.0/">
]>
<svg version="1.1" id="Layer_1" xmlns:x="&ns_extend;" xmlns:i="&ns_ai;" xmlns:graph="&ns_graphs;"
	 xmlns="http://www.w3.org/2000/svg" xmlns:xlink="http://www.w3.org/1999/xlink" x="0px" y="0px" width="38.428px" height="23px"
	 viewBox="0 0 38.428 23" enable-background="new 0 0 38.428 23" xml:space="preserve">
<metadata>
	<sfw  xmlns="&ns_sfw;">
		<slices></slices>
		<sliceSourceBounds  width="38.428" height="23" y="57" x="-69" bottomLeftOrigin="true"></sliceSourceBounds>
	</sfw>
</metadata>
<g>
	<polygon fill="#B6B6B6" points="26.906,23 27.5,22.984 28.086,22.942 28.66,22.868 29.23,22.767 29.785,22.639 30.332,22.484 
		30.867,22.302 31.391,22.096 31.903,21.863 32.399,21.611 32.881,21.332 33.35,21.033 33.8,20.711 34.234,20.37 34.653,20.009 
		35.053,19.625 35.437,19.226 35.798,18.807 36.139,18.372 36.461,17.922 36.76,17.453 37.039,16.972 37.291,16.475 37.524,15.963 
		37.729,15.439 37.912,14.904 38.067,14.357 38.195,13.802 38.296,13.232 38.37,12.658 38.412,12.072 38.428,11.479 38.412,10.889 
		38.37,10.307 38.296,9.733 38.195,9.171 38.067,8.616 37.912,8.073 37.729,7.537 37.524,7.018 37.291,6.509 37.039,6.013 
		36.76,5.536 36.461,5.066 36.139,4.616 35.798,4.186 35.437,3.767 35.053,3.367 34.653,2.987 34.234,2.626 33.8,2.285 33.35,1.963 
		32.881,1.664 32.399,1.389 31.903,1.137 31.391,0.904 30.867,0.698 30.332,0.516 29.785,0.361 29.23,0.233 28.66,0.132 
		28.086,0.058 27.5,0.016 26.906,0 26.317,0.016 25.731,0.058 25.157,0.132 24.59,0.233 24.036,0.361 23.489,0.516 22.957,0.698 
		22.434,0.904 21.925,1.137 21.433,1.389 20.952,1.664 20.486,1.963 20.036,2.285 19.602,2.626 19.187,2.987 18.787,3.367 
		18.407,3.767 18.046,4.186 17.705,4.616 17.387,5.066 17.088,5.536 16.813,6.013 16.557,6.509 16.328,7.018 16.122,7.537 
		15.944,8.073 15.788,8.616 15.661,9.171 15.56,9.733 15.486,10.307 15.443,10.889 15.428,11.479 15.443,12.072 15.486,12.658 
		15.56,13.232 15.661,13.802 15.788,14.357 15.944,14.904 16.122,15.439 16.328,15.963 16.557,16.475 16.813,16.972 17.088,17.453 
		17.387,17.922 17.705,18.372 18.046,18.807 18.407,19.226 18.787,19.625 19.187,20.009 19.602,20.37 20.036,20.711 20.486,21.033 
		20.952,21.332 21.433,21.611 21.925,21.863 22.434,22.096 22.957,22.302 23.489,22.484 24.036,22.639 24.59,22.767 25.157,22.868 
		25.731,22.942 26.317,22.984 26.906,23 	"/>
	<polygon fill="#464646" points="11.521,23 12.111,22.984 12.697,22.942 13.271,22.868 13.837,22.767 14.392,22.639 14.939,22.484 
		15.47,22.302 15.994,22.096 16.502,21.863 16.995,21.611 17.476,21.332 17.941,21.033 18.392,20.711 18.826,20.37 19.241,20.009 
		19.641,19.625 20.021,19.226 20.382,18.807 20.723,18.372 21.041,17.922 21.34,17.453 21.615,16.972 21.871,16.475 22.1,15.963 
		22.306,15.439 22.484,14.904 22.639,14.357 22.767,13.802 22.868,13.232 22.942,12.658 22.985,12.072 23,11.479 22.985,10.889 
		22.942,10.307 22.868,9.733 22.767,9.171 22.639,8.616 22.484,8.073 22.306,7.537 22.1,7.018 21.871,6.509 21.615,6.013 
		21.34,5.536 21.041,5.066 20.723,4.616 20.382,4.186 20.021,3.767 19.641,3.367 19.241,2.987 18.826,2.626 18.392,2.285 
		17.941,1.963 17.476,1.664 16.995,1.389 16.502,1.137 15.994,0.904 15.47,0.698 14.939,0.516 14.392,0.361 13.837,0.233 
		13.271,0.132 12.697,0.058 12.111,0.016 11.521,0 10.928,0.016 10.342,0.058 9.768,0.132 9.198,0.233 8.643,0.361 8.096,0.516 
		7.561,0.698 7.037,0.904 6.525,1.137 6.028,1.389 5.547,1.664 5.078,1.963 4.628,2.285 4.193,2.626 3.774,2.987 3.375,3.367 
		2.991,3.767 2.63,4.186 2.289,4.616 1.967,5.066 1.668,5.536 1.389,6.013 1.137,6.509 0.904,7.018 0.698,7.537 0.516,8.073 
		0.361,8.616 0.233,9.171 0.132,9.733 0.058,10.307 0.015,10.889 0,11.479 0.015,12.072 0.058,12.658 0.132,13.232 0.233,13.802 
		0.361,14.357 0.516,14.904 0.698,15.439 0.904,15.963 1.137,16.475 1.389,16.972 1.668,17.453 1.967,17.922 2.289,18.372 
		2.63,18.807 2.991,19.226 3.375,19.625 3.774,20.009 4.193,20.37 4.628,20.711 5.078,21.033 5.547,21.332 6.028,21.611 
		6.525,21.863 7.037,22.096 7.561,22.302 8.096,22.484 8.643,22.639 9.198,22.767 9.768,22.868 10.342,22.942 10.928,22.984 
		11.521,23 	"/>
	<polygon fill="#B6B6B6" points="17.868,4.411 23.978,4.411 23.978,3.786 18.395,3.786 17.868,4.411 	"/>
	<polygon fill="#B6B6B6" points="16.952,5.799 23.978,5.799 23.978,5.175 17.321,5.175 16.952,5.799 	"/>
	<polygon fill="#B6B6B6" points="16.27,7.184 23.978,7.184 23.978,6.56 16.541,6.56 16.27,7.184 	"/>
	<polygon fill="#B6B6B6" points="15.8,8.573 23.978,8.573 23.978,7.949 15.994,7.949 15.8,8.573 	"/>
	<polygon fill="#B6B6B6" points="16.072,15.284 23.997,15.284 23.997,14.66 15.878,14.66 16.072,15.284 	"/>
	<polygon fill="#B6B6B6" points="16.657,16.673 23.997,16.673 23.997,16.048 16.366,16.048 16.657,16.673 	"/>
	<polygon fill="#B6B6B6" points="17.48,18.058 23.997,18.058 23.997,17.433 17.088,17.433 17.48,18.058 	"/>
	<polygon fill="#B6B6B6" points="18.613,19.447 23.997,19.447 23.997,18.818 18.066,18.818 18.613,19.447 	"/>
	<polygon fill="#B6B6B6" points="15.525,9.958 23.978,9.958 23.978,9.333 15.645,9.333 15.525,9.958 	"/>
	<polygon fill="#B6B6B6" points="20.676,13.899 23.9,13.899 23.9,13.275 20.793,13.275 20.676,13.899 	"/>
	<polygon fill="#B6B6B6" points="20.932,12.515 23.9,12.515 23.9,11.886 21.049,11.886 20.932,12.515 	"/>
	<polygon fill="#B6B6B6" points="15.311,11.886 16.149,11.886 16.149,12.515 15.35,12.515 15.311,11.886 	"/>
	<polygon fill="#FFFFFF" points="13.748,11.13 13.694,11.126 13.639,11.118 13.589,11.11 13.539,11.102 13.492,11.095 
		13.442,11.087 13.391,11.079 13.337,11.071 13.283,11.064 13.22,11.06 13.151,11.056 13.077,11.052 12.995,11.052 12.906,11.056 
		12.805,11.064 12.693,11.071 12.615,11.083 12.542,11.095 12.476,11.118 12.417,11.141 12.363,11.168 12.313,11.199 12.274,11.238 
		12.239,11.273 12.216,11.316 12.196,11.358 12.189,11.405 12.189,11.452 12.2,11.502 12.216,11.552 12.247,11.603 12.286,11.653 
		12.363,11.727 12.456,11.785 12.565,11.836 12.681,11.878 12.805,11.917 12.933,11.96 13.061,12.006 13.186,12.057 13.302,12.123 
		13.411,12.204 13.508,12.301 13.589,12.421 13.651,12.569 13.69,12.743 13.705,12.953 13.69,13.197 13.663,13.379 13.616,13.539 
		13.554,13.686 13.476,13.814 13.387,13.926 13.286,14.023 13.178,14.109 13.058,14.183 12.933,14.241 12.805,14.291 12.673,14.33 
		12.538,14.361 12.406,14.384 12.278,14.396 12.15,14.404 12.029,14.407 11.863,14.407 11.708,14.404 11.572,14.404 11.444,14.4 
		11.327,14.396 11.223,14.388 11.13,14.38 11.04,14.369 10.959,14.361 10.885,14.345 10.811,14.334 10.745,14.314 10.68,14.299 
		10.617,14.276 10.555,14.252 10.489,14.229 10.664,13.372 10.699,13.379 10.742,13.391 10.796,13.407 10.862,13.422 10.932,13.438 
		11.009,13.453 11.095,13.473 11.188,13.488 11.285,13.504 11.385,13.519 11.49,13.531 11.599,13.543 11.711,13.546 11.824,13.55 
		11.936,13.55 12.049,13.546 12.161,13.523 12.251,13.492 12.32,13.449 12.375,13.395 12.414,13.341 12.445,13.279 12.464,13.217 
		12.48,13.158 12.487,13.046 12.452,12.949 12.386,12.871 12.289,12.805 12.173,12.747 12.037,12.689 11.886,12.635 11.735,12.573 
		11.58,12.503 11.432,12.421 11.296,12.32 11.172,12.2 11.075,12.053 11.005,11.878 10.97,11.669 10.974,11.421 10.994,11.269 
		11.021,11.126 11.06,10.994 11.106,10.87 11.168,10.753 11.238,10.652 11.32,10.555 11.417,10.47 11.529,10.396 11.653,10.334 
		11.793,10.276 11.948,10.233 12.123,10.199 12.313,10.171 12.522,10.156 12.751,10.152 12.895,10.152 13.026,10.156 13.147,10.16 
		13.255,10.164 13.352,10.171 13.442,10.179 13.519,10.187 13.589,10.195 13.655,10.202 13.709,10.214 13.76,10.222 13.806,10.23 
		13.845,10.237 13.88,10.241 13.915,10.249 13.946,10.253 13.748,11.13 	"/>
	<polyline fill="none" stroke="#FFFFFF" stroke-width="0.0444" stroke-miterlimit="2.6131" points="13.748,11.13 13.748,11.13 
		13.694,11.126 13.639,11.118 13.589,11.11 13.539,11.102 13.492,11.095 13.442,11.087 13.391,11.079 13.337,11.071 13.283,11.064 
		13.22,11.06 13.151,11.056 13.077,11.052 12.995,11.052 12.906,11.056 12.805,11.064 12.693,11.071 12.693,11.071 12.615,11.083 
		12.542,11.095 12.476,11.118 12.417,11.141 12.363,11.168 12.313,11.199 12.274,11.238 12.239,11.273 12.216,11.316 12.196,11.358 
		12.189,11.405 12.189,11.452 12.2,11.502 12.216,11.552 12.247,11.603 12.286,11.653 12.286,11.653 12.363,11.727 12.456,11.785 
		12.565,11.836 12.681,11.878 12.805,11.917 12.933,11.96 13.061,12.006 13.186,12.057 13.302,12.123 13.411,12.204 13.508,12.301 
		13.589,12.421 13.651,12.569 13.69,12.743 13.705,12.953 13.69,13.197 13.69,13.197 13.663,13.379 13.616,13.539 13.554,13.686 
		13.476,13.814 13.387,13.926 13.286,14.023 13.178,14.109 13.058,14.183 12.933,14.241 12.805,14.291 12.673,14.33 12.538,14.361 
		12.406,14.384 12.278,14.396 12.15,14.404 12.029,14.407 12.029,14.407 11.863,14.407 11.708,14.404 11.572,14.404 11.444,14.4 
		11.327,14.396 11.223,14.388 11.13,14.38 11.04,14.369 10.959,14.361 10.885,14.345 10.811,14.334 10.745,14.314 10.68,14.299 
		10.617,14.276 10.555,14.252 10.489,14.229 10.664,13.372 10.664,13.372 10.699,13.379 10.742,13.391 10.796,13.407 10.862,13.422 
		10.932,13.438 11.009,13.453 11.095,13.473 11.188,13.488 11.285,13.504 11.385,13.519 11.49,13.531 11.599,13.543 11.711,13.546 
		11.824,13.55 11.936,13.55 12.049,13.546 12.049,13.546 12.161,13.523 12.251,13.492 12.32,13.449 12.375,13.395 12.414,13.341 
		12.445,13.279 12.464,13.217 12.48,13.158 12.48,13.158 12.487,13.046 12.452,12.949 12.386,12.871 12.289,12.805 12.173,12.747 
		12.037,12.689 11.886,12.635 11.735,12.573 11.58,12.503 11.432,12.421 11.296,12.32 11.172,12.2 11.075,12.053 11.005,11.878 
		10.97,11.669 10.974,11.421 10.974,11.421 10.994,11.269 11.021,11.126 11.06,10.994 11.106,10.87 11.168,10.753 11.238,10.652 
		11.32,10.555 11.417,10.47 11.529,10.396 11.653,10.334 11.793,10.276 11.948,10.233 12.123,10.199 12.313,10.171 12.522,10.156 
		12.751,10.152 12.751,10.152 12.895,10.152 13.026,10.156 13.147,10.16 13.255,10.164 13.352,10.171 13.442,10.179 13.519,10.187 
		13.589,10.195 13.655,10.202 13.709,10.214 13.76,10.222 13.806,10.23 13.845,10.237 13.88,10.241 13.915,10.249 13.946,10.253 
		13.748,11.13 	"/>
	<polygon fill="#FFFFFF" points="14.667,9.295 15.742,9.295 15.583,10.233 16.231,10.233 16.091,11.11 15.408,11.091 15.036,13.255 
		15.032,13.333 15.051,13.399 15.09,13.449 15.141,13.492 15.21,13.519 15.288,13.543 15.373,13.558 15.467,13.566 15.552,13.562 
		15.629,13.554 15.699,13.543 15.761,13.527 15.812,13.511 15.847,13.5 15.87,13.492 15.878,13.488 15.742,14.21 15.715,14.229 
		15.688,14.245 15.661,14.26 15.633,14.276 15.606,14.287 15.575,14.299 15.54,14.311 15.505,14.322 15.467,14.334 15.428,14.341 
		15.381,14.349 15.335,14.357 15.284,14.365 15.226,14.373 15.164,14.38 15.098,14.388 14.803,14.388 14.648,14.376 14.512,14.361 
		14.388,14.338 14.283,14.311 14.194,14.276 14.121,14.237 14.054,14.19 14.004,14.14 13.965,14.086 13.938,14.02 13.919,13.954 
		13.907,13.88 13.903,13.798 13.903,13.713 13.915,13.624 13.926,13.527 14.667,9.295 	"/>
	<polyline fill="none" stroke="#FFFFFF" stroke-width="0.0444" stroke-miterlimit="2.6131" points="14.667,9.295 15.742,9.295 
		15.583,10.233 16.231,10.233 16.091,11.11 15.408,11.091 15.036,13.255 15.036,13.255 15.032,13.333 15.051,13.399 15.09,13.449 
		15.141,13.492 15.21,13.519 15.288,13.543 15.373,13.558 15.467,13.566 15.467,13.566 15.552,13.562 15.629,13.554 15.699,13.543 
		15.761,13.527 15.812,13.511 15.847,13.5 15.87,13.492 15.878,13.488 15.742,14.21 15.742,14.21 15.715,14.229 15.688,14.245 
		15.661,14.26 15.633,14.276 15.606,14.287 15.575,14.299 15.54,14.311 15.505,14.322 15.467,14.334 15.428,14.341 15.381,14.349 
		15.335,14.357 15.284,14.365 15.226,14.373 15.164,14.38 15.098,14.388 14.803,14.388 14.803,14.388 14.648,14.376 14.512,14.361 
		14.388,14.338 14.283,14.311 14.194,14.276 14.121,14.237 14.054,14.19 14.004,14.14 13.965,14.086 13.938,14.02 13.919,13.954 
		13.907,13.88 13.903,13.798 13.903,13.713 13.915,13.624 13.926,13.527 14.667,9.295 	"/>
	<polygon fill="#FFFFFF" points="17.088,12.573 17.076,12.638 17.073,12.708 17.08,12.782 17.096,12.856 17.123,12.93 
		17.154,12.999 17.197,13.073 17.243,13.139 17.298,13.205 17.356,13.263 17.418,13.321 17.488,13.368 17.557,13.411 17.635,13.445 
		17.713,13.473 17.79,13.488 17.891,13.504 17.988,13.515 18.089,13.527 18.19,13.535 18.291,13.539 18.395,13.539 18.496,13.535 
		18.601,13.527 18.706,13.511 18.81,13.492 18.919,13.469 19.024,13.434 19.132,13.391 19.245,13.345 19.354,13.283 19.466,13.217 
		19.311,14.171 19.249,14.202 19.187,14.233 19.125,14.256 19.066,14.279 19.008,14.299 18.946,14.318 18.884,14.334 18.818,14.345 
		18.748,14.357 18.671,14.365 18.589,14.373 18.5,14.38 18.399,14.384 18.295,14.384 18.174,14.388 18.046,14.388 17.856,14.384 
		17.662,14.365 17.468,14.338 17.274,14.291 17.084,14.233 16.902,14.159 16.727,14.062 16.564,13.95 16.413,13.818 16.281,13.659 
		16.169,13.48 16.076,13.275 16.01,13.046 15.967,12.786 15.955,12.499 15.975,12.181 15.99,12.057 16.014,11.913 16.045,11.762 
		16.087,11.599 16.145,11.432 16.215,11.265 16.305,11.095 16.413,10.932 16.537,10.777 16.689,10.629 16.859,10.497 17.053,10.381 
		17.278,10.284 17.53,10.214 17.81,10.167 18.124,10.152 18.275,10.156 18.434,10.171 18.593,10.199 18.752,10.237 18.907,10.296 
		19.059,10.365 19.198,10.458 19.326,10.567 19.443,10.699 19.54,10.854 19.617,11.033 19.672,11.238 19.703,11.471 19.707,11.735 
		19.679,12.03 19.621,12.355 19.602,12.592 16.774,12.592 16.952,11.828 18.651,11.828 18.659,11.731 18.655,11.638 18.647,11.552 
		18.632,11.475 18.605,11.401 18.578,11.335 18.539,11.277 18.5,11.223 18.454,11.176 18.403,11.137 18.345,11.102 18.287,11.071 
		18.225,11.048 18.163,11.033 18.097,11.021 18.027,11.013 17.953,11.017 17.883,11.029 17.817,11.044 17.751,11.067 17.685,11.098 
		17.627,11.133 17.569,11.176 17.519,11.223 17.468,11.277 17.422,11.335 17.379,11.397 17.344,11.463 17.309,11.533 17.282,11.611 
		17.259,11.688 17.243,11.77 17.088,12.573 	"/>
	<polyline fill="none" stroke="#FFFFFF" stroke-width="0.0444" stroke-miterlimit="2.6131" points="17.088,12.573 17.088,12.573 
		17.076,12.638 17.073,12.708 17.08,12.782 17.096,12.856 17.123,12.93 17.154,12.999 17.197,13.073 17.243,13.139 17.298,13.205 
		17.356,13.263 17.418,13.321 17.488,13.368 17.557,13.411 17.635,13.445 17.713,13.473 17.79,13.488 17.79,13.488 17.891,13.504 
		17.988,13.515 18.089,13.527 18.19,13.535 18.291,13.539 18.395,13.539 18.496,13.535 18.601,13.527 18.706,13.511 18.81,13.492 
		18.919,13.469 19.024,13.434 19.132,13.391 19.245,13.345 19.354,13.283 19.466,13.217 19.311,14.171 19.311,14.171 19.249,14.202 
		19.187,14.233 19.125,14.256 19.066,14.279 19.008,14.299 18.946,14.318 18.884,14.334 18.818,14.345 18.748,14.357 18.671,14.365 
		18.589,14.373 18.5,14.38 18.399,14.384 18.295,14.384 18.174,14.388 18.046,14.388 18.046,14.388 17.856,14.384 17.662,14.365 
		17.468,14.338 17.274,14.291 17.084,14.233 16.902,14.159 16.727,14.062 16.564,13.95 16.413,13.818 16.281,13.659 16.169,13.48 
		16.076,13.275 16.01,13.046 15.967,12.786 15.955,12.499 15.975,12.181 15.975,12.181 15.99,12.057 16.014,11.913 16.045,11.762 
		16.087,11.599 16.145,11.432 16.215,11.265 16.305,11.095 16.413,10.932 16.537,10.777 16.689,10.629 16.859,10.497 17.053,10.381 
		17.278,10.284 17.53,10.214 17.81,10.167 18.124,10.152 18.124,10.152 18.275,10.156 18.434,10.171 18.593,10.199 18.752,10.237 
		18.907,10.296 19.059,10.365 19.198,10.458 19.326,10.567 19.443,10.699 19.54,10.854 19.617,11.033 19.672,11.238 19.703,11.471 
		19.707,11.735 19.679,12.03 19.621,12.355 19.602,12.592 16.774,12.592 16.952,11.828 18.651,11.828 18.651,11.828 18.659,11.731 
		18.655,11.638 18.647,11.552 18.632,11.475 18.605,11.401 18.578,11.335 18.539,11.277 18.5,11.223 18.454,11.176 18.403,11.137 
		18.345,11.102 18.287,11.071 18.225,11.048 18.163,11.033 18.097,11.021 18.027,11.013 18.027,11.013 17.953,11.017 17.883,11.029 
		17.817,11.044 17.751,11.067 17.685,11.098 17.627,11.133 17.569,11.176 17.519,11.223 17.468,11.277 17.422,11.335 17.379,11.397 
		17.344,11.463 17.309,11.533 17.282,11.611 17.259,11.688 17.243,11.77 17.088,12.573 	"/>
	<polygon fill="#FFFFFF" points="26.34,10.466 26.29,10.439 26.239,10.416 26.185,10.389 26.127,10.361 26.069,10.338 
		26.003,10.315 25.937,10.292 25.867,10.268 25.793,10.249 25.719,10.233 25.638,10.218 25.556,10.206 25.467,10.199 25.378,10.191 
		25.285,10.191 25.188,10.191 25.091,10.191 24.99,10.199 24.885,10.21 24.777,10.23 24.668,10.261 24.56,10.303 24.451,10.358 
		24.342,10.427 24.238,10.513 24.137,10.614 24.04,10.738 23.947,10.881 23.861,11.052 23.78,11.246 23.706,11.463 23.644,11.711 
		23.621,11.851 23.605,11.987 23.597,12.123 23.601,12.255 23.613,12.386 23.64,12.511 23.675,12.627 23.718,12.743 23.776,12.848 
		23.846,12.949 23.927,13.038 24.02,13.119 24.125,13.189 24.245,13.248 24.377,13.298 24.525,13.333 24.575,13.345 24.633,13.356 
		24.703,13.364 24.781,13.372 24.866,13.379 24.955,13.379 25.052,13.379 25.149,13.372 25.25,13.36 25.351,13.341 25.448,13.314 
		25.545,13.283 25.642,13.24 25.731,13.189 25.812,13.127 25.89,13.058 25.716,14.093 25.692,14.113 25.669,14.136 25.638,14.163 
		25.603,14.186 25.56,14.218 25.506,14.245 25.444,14.272 25.374,14.295 25.285,14.322 25.184,14.341 25.068,14.357 24.932,14.373 
		24.781,14.38 24.606,14.384 24.408,14.38 24.191,14.369 24.013,14.349 23.834,14.311 23.656,14.252 23.477,14.175 23.306,14.082 
		23.144,13.965 22.988,13.83 22.845,13.674 22.717,13.5 22.608,13.306 22.515,13.089 22.445,12.852 22.399,12.592 22.383,12.317 
		22.391,12.014 22.434,11.692 22.465,11.533 22.5,11.378 22.538,11.227 22.577,11.083 22.62,10.947 22.67,10.811 22.721,10.683 
		22.775,10.563 22.833,10.443 22.891,10.33 22.957,10.222 23.027,10.121 23.097,10.024 23.175,9.931 23.252,9.846 23.334,9.764 
		23.423,9.686 23.512,9.613 23.605,9.547 23.702,9.485 23.807,9.426 23.912,9.376 24.02,9.33 24.133,9.287 24.253,9.248 
		24.373,9.217 24.497,9.19 24.629,9.167 24.761,9.147 24.901,9.132 25.041,9.124 25.188,9.12 25.312,9.124 25.432,9.132 
		25.549,9.143 25.665,9.159 25.774,9.174 25.878,9.198 25.979,9.217 26.072,9.24 26.162,9.264 26.239,9.287 26.313,9.31 
		26.375,9.333 26.429,9.353 26.476,9.368 26.511,9.384 26.534,9.392 26.34,10.466 	"/>
	<polyline fill="none" stroke="#FFFFFF" stroke-width="0.0444" stroke-miterlimit="2.6131" points="26.34,10.466 26.34,10.466 
		26.29,10.439 26.239,10.416 26.185,10.389 26.127,10.361 26.069,10.338 26.003,10.315 25.937,10.292 25.867,10.268 25.793,10.249 
		25.719,10.233 25.638,10.218 25.556,10.206 25.467,10.199 25.378,10.191 25.285,10.191 25.188,10.191 25.188,10.191 25.091,10.191 
		24.99,10.199 24.885,10.21 24.777,10.23 24.668,10.261 24.56,10.303 24.451,10.358 24.342,10.427 24.238,10.513 24.137,10.614 
		24.04,10.738 23.947,10.881 23.861,11.052 23.78,11.246 23.706,11.463 23.644,11.711 23.644,11.711 23.621,11.851 23.605,11.987 
		23.597,12.123 23.601,12.255 23.613,12.386 23.64,12.511 23.675,12.627 23.718,12.743 23.776,12.848 23.846,12.949 23.927,13.038 
		24.02,13.119 24.125,13.189 24.245,13.248 24.377,13.298 24.525,13.333 24.525,13.333 24.575,13.345 24.633,13.356 24.703,13.364 
		24.781,13.372 24.866,13.379 24.955,13.379 25.052,13.379 25.149,13.372 25.25,13.36 25.351,13.341 25.448,13.314 25.545,13.283 
		25.642,13.24 25.731,13.189 25.812,13.127 25.89,13.058 25.716,14.093 25.716,14.093 25.692,14.113 25.669,14.136 25.638,14.163 
		25.603,14.186 25.56,14.218 25.506,14.245 25.444,14.272 25.374,14.295 25.285,14.322 25.184,14.341 25.068,14.357 24.932,14.373 
		24.781,14.38 24.606,14.384 24.408,14.38 24.191,14.369 24.191,14.369 24.013,14.349 23.834,14.311 23.656,14.252 23.477,14.175 
		23.306,14.082 23.144,13.965 22.988,13.83 22.845,13.674 22.717,13.5 22.608,13.306 22.515,13.089 22.445,12.852 22.399,12.592 
		22.383,12.317 22.391,12.014 22.434,11.692 22.434,11.692 22.465,11.533 22.5,11.378 22.538,11.227 22.577,11.083 22.62,10.947 
		22.67,10.811 22.721,10.683 22.775,10.563 22.833,10.443 22.891,10.33 22.957,10.222 23.027,10.121 23.097,10.024 23.175,9.931 
		23.252,9.846 23.334,9.764 23.423,9.686 23.512,9.613 23.605,9.547 23.702,9.485 23.807,9.426 23.912,9.376 24.02,9.33 
		24.133,9.287 24.253,9.248 24.373,9.217 24.497,9.19 24.629,9.167 24.761,9.147 24.901,9.132 25.041,9.124 25.188,9.12 
		25.188,9.12 25.312,9.124 25.432,9.132 25.549,9.143 25.665,9.159 25.774,9.174 25.878,9.198 25.979,9.217 26.072,9.24 
		26.162,9.264 26.239,9.287 26.313,9.31 26.375,9.333 26.429,9.353 26.476,9.368 26.511,9.384 26.534,9.392 26.34,10.466 	"/>
	<polygon fill="#FFFFFF" points="35.891,14.388 34.816,14.388 34.894,13.958 34.894,13.919 34.832,13.996 34.766,14.066 
		34.7,14.128 34.63,14.183 34.56,14.233 34.49,14.276 34.421,14.311 34.347,14.345 34.273,14.373 34.199,14.392 34.126,14.411 
		34.048,14.423 33.97,14.435 33.897,14.442 33.819,14.446 33.742,14.446 33.54,14.431 33.354,14.388 33.183,14.322 33.028,14.233 
		32.888,14.12 32.764,13.989 32.655,13.845 32.562,13.682 32.485,13.507 32.423,13.325 32.38,13.135 32.349,12.937 32.337,12.739 
		32.341,12.538 32.361,12.34 32.395,12.142 32.454,11.913 32.524,11.696 32.605,11.498 32.702,11.312 32.803,11.137 32.919,10.982 
		33.04,10.843 33.168,10.714 33.303,10.602 33.447,10.505 33.594,10.42 33.742,10.354 33.897,10.299 34.052,10.265 34.207,10.241 
		34.366,10.233 34.479,10.237 34.587,10.249 34.688,10.268 34.781,10.296 34.871,10.327 34.948,10.361 35.026,10.404 35.096,10.447 
		35.158,10.493 35.216,10.544 35.266,10.594 35.313,10.645 35.352,10.695 35.386,10.745 35.418,10.792 35.441,10.839 35.441,10.839 
		35.712,9.314 36.767,9.314 35.891,14.388 	"/>
	<polyline fill="none" stroke="#FFFFFF" stroke-width="0.0444" stroke-miterlimit="2.6131" points="35.891,14.388 34.816,14.388 
		34.894,13.958 34.894,13.919 34.894,13.919 34.832,13.996 34.766,14.066 34.7,14.128 34.63,14.183 34.56,14.233 34.49,14.276 
		34.421,14.311 34.347,14.345 34.273,14.373 34.199,14.392 34.126,14.411 34.048,14.423 33.97,14.435 33.897,14.442 33.819,14.446 
		33.742,14.446 33.742,14.446 33.54,14.431 33.354,14.388 33.183,14.322 33.028,14.233 32.888,14.12 32.764,13.989 32.655,13.845 
		32.562,13.682 32.485,13.507 32.423,13.325 32.38,13.135 32.349,12.937 32.337,12.739 32.341,12.538 32.361,12.34 32.395,12.142 
		32.395,12.142 32.454,11.913 32.524,11.696 32.605,11.498 32.702,11.312 32.803,11.137 32.919,10.982 33.04,10.843 33.168,10.714 
		33.303,10.602 33.447,10.505 33.594,10.42 33.742,10.354 33.897,10.299 34.052,10.265 34.207,10.241 34.366,10.233 34.366,10.233 
		34.479,10.237 34.587,10.249 34.688,10.268 34.781,10.296 34.871,10.327 34.948,10.361 35.026,10.404 35.096,10.447 35.158,10.493 
		35.216,10.544 35.266,10.594 35.313,10.645 35.352,10.695 35.386,10.745 35.418,10.792 35.441,10.839 35.441,10.839 35.712,9.314 
		36.767,9.314 35.891,14.388 	"/>
	<polygon fill="#B6B6B6" points="34.134,13.449 34.242,13.442 34.343,13.418 34.436,13.391 34.525,13.348 34.607,13.302 
		34.684,13.244 34.758,13.178 34.824,13.108 34.882,13.03 34.937,12.945 34.987,12.856 35.03,12.763 35.068,12.666 35.099,12.565 
		35.126,12.46 35.146,12.355 35.165,12.247 35.177,12.134 35.177,12.03 35.173,11.921 35.162,11.82 35.146,11.723 35.119,11.63 
		35.088,11.541 35.049,11.463 35.003,11.389 34.952,11.327 34.894,11.273 34.828,11.227 34.758,11.195 34.684,11.176 34.603,11.168 
		34.498,11.176 34.401,11.192 34.312,11.223 34.223,11.261 34.145,11.312 34.068,11.374 34.002,11.44 33.936,11.514 33.877,11.599 
		33.823,11.688 33.773,11.781 33.73,11.882 33.691,11.987 33.66,12.091 33.629,12.204 33.606,12.317 33.587,12.487 33.594,12.673 
		33.621,12.864 33.672,13.046 33.749,13.205 33.85,13.333 33.978,13.418 34.134,13.449 	"/>
	<polygon fill="#FFFFFF" points="10.311,13.527 10.156,14.388 9.178,14.388 9.205,14.229 9.225,14.086 9.24,13.977 9.256,13.919 
		9.202,13.981 9.14,14.043 9.066,14.101 8.984,14.155 8.891,14.21 8.794,14.256 8.693,14.303 8.589,14.341 8.476,14.376 
		8.364,14.404 8.251,14.427 8.135,14.442 8.022,14.45 7.91,14.454 7.801,14.442 7.696,14.427 7.561,14.392 7.436,14.353 
		7.328,14.303 7.231,14.245 7.146,14.183 7.068,14.113 7.006,14.039 6.952,13.961 6.905,13.88 6.866,13.794 6.835,13.709 
		6.812,13.624 6.796,13.535 6.785,13.445 6.777,13.36 6.777,13.275 6.789,13.123 6.812,12.98 6.851,12.844 6.901,12.712 
		6.963,12.588 7.033,12.476 7.115,12.367 7.208,12.27 7.305,12.181 7.413,12.099 7.526,12.026 7.642,11.964 7.766,11.909 
		7.894,11.867 8.026,11.832 8.162,11.808 8.17,11.808 8.189,11.804 8.216,11.801 8.259,11.797 8.305,11.789 8.36,11.785 
		8.418,11.777 8.484,11.77 8.55,11.762 8.616,11.754 8.686,11.75 8.748,11.742 8.81,11.739 8.868,11.735 8.922,11.731 8.965,11.731 
		9.054,11.731 9.147,11.735 9.233,11.739 9.318,11.739 9.388,11.742 9.442,11.746 9.481,11.75 9.492,11.75 9.5,11.723 9.524,11.653 
		9.543,11.572 9.551,11.498 9.535,11.413 9.5,11.335 9.454,11.265 9.392,11.207 9.318,11.157 9.236,11.122 9.143,11.098 
		9.042,11.091 8.934,11.087 8.817,11.083 8.697,11.083 8.573,11.087 8.445,11.095 8.321,11.106 8.197,11.118 8.077,11.133 
		7.96,11.149 7.848,11.168 7.747,11.188 7.654,11.207 7.568,11.23 7.499,11.254 7.444,11.281 7.402,11.304 7.677,10.369 
		7.762,10.334 7.848,10.303 7.941,10.276 8.034,10.257 8.127,10.237 8.228,10.222 8.329,10.206 8.433,10.199 8.542,10.191 
		8.655,10.187 8.771,10.183 8.891,10.183 9.015,10.183 9.143,10.183 9.279,10.187 9.415,10.191 9.524,10.199 9.64,10.218 
		9.76,10.245 9.884,10.28 10.005,10.327 10.121,10.381 10.237,10.447 10.346,10.52 10.443,10.606 10.528,10.699 10.606,10.804 
		10.664,10.92 10.703,11.044 10.726,11.176 10.726,11.324 10.703,11.479 10.311,13.527 	"/>
	<polyline fill="none" stroke="#FFFFFF" stroke-width="0.0444" stroke-miterlimit="2.6131" points="10.311,13.527 10.156,14.388 
		9.178,14.388 9.178,14.388 9.205,14.229 9.225,14.086 9.24,13.977 9.256,13.919 9.256,13.919 9.202,13.981 9.14,14.043 
		9.066,14.101 8.984,14.155 8.891,14.21 8.794,14.256 8.693,14.303 8.589,14.341 8.476,14.376 8.364,14.404 8.251,14.427 
		8.135,14.442 8.022,14.45 7.91,14.454 7.801,14.442 7.696,14.427 7.696,14.427 7.561,14.392 7.436,14.353 7.328,14.303 
		7.231,14.245 7.146,14.183 7.068,14.113 7.006,14.039 6.952,13.961 6.905,13.88 6.866,13.794 6.835,13.709 6.812,13.624 
		6.796,13.535 6.785,13.445 6.777,13.36 6.777,13.275 6.777,13.275 6.789,13.123 6.812,12.98 6.851,12.844 6.901,12.712 
		6.963,12.588 7.033,12.476 7.115,12.367 7.208,12.27 7.305,12.181 7.413,12.099 7.526,12.026 7.642,11.964 7.766,11.909 
		7.894,11.867 8.026,11.832 8.162,11.808 8.162,11.808 8.17,11.808 8.189,11.804 8.216,11.801 8.259,11.797 8.305,11.789 
		8.36,11.785 8.418,11.777 8.484,11.77 8.55,11.762 8.616,11.754 8.686,11.75 8.748,11.742 8.81,11.739 8.868,11.735 8.922,11.731 
		8.965,11.731 8.965,11.731 9.054,11.731 9.147,11.735 9.233,11.739 9.318,11.739 9.388,11.742 9.442,11.746 9.481,11.75 
		9.492,11.75 9.492,11.75 9.5,11.723 9.524,11.653 9.543,11.572 9.551,11.498 9.551,11.498 9.535,11.413 9.5,11.335 9.454,11.265 
		9.392,11.207 9.318,11.157 9.236,11.122 9.143,11.098 9.042,11.091 9.042,11.091 8.934,11.087 8.817,11.083 8.697,11.083 
		8.573,11.087 8.445,11.095 8.321,11.106 8.197,11.118 8.077,11.133 7.96,11.149 7.848,11.168 7.747,11.188 7.654,11.207 
		7.568,11.23 7.499,11.254 7.444,11.281 7.402,11.304 7.677,10.369 7.677,10.369 7.762,10.334 7.848,10.303 7.941,10.276 
		8.034,10.257 8.127,10.237 8.228,10.222 8.329,10.206 8.433,10.199 8.542,10.191 8.655,10.187 8.771,10.183 8.891,10.183 
		9.015,10.183 9.143,10.183 9.279,10.187 9.415,10.191 9.415,10.191 9.524,10.199 9.64,10.218 9.76,10.245 9.884,10.28 
		10.005,10.327 10.121,10.381 10.237,10.447 10.346,10.52 10.443,10.606 10.528,10.699 10.606,10.804 10.664,10.92 10.703,11.044 
		10.726,11.176 10.726,11.324 10.703,11.479 10.311,13.527 	"/>
	<polygon fill="#464646" points="9.376,12.515 9.372,12.495 9.357,12.476 9.333,12.464 9.295,12.456 9.252,12.449 9.202,12.445 
		9.143,12.445 9.085,12.445 9.023,12.449 8.957,12.456 8.895,12.464 8.833,12.472 8.775,12.479 8.721,12.491 8.674,12.503 
		8.631,12.515 8.604,12.522 8.573,12.534 8.53,12.549 8.488,12.569 8.437,12.592 8.387,12.619 8.333,12.646 8.282,12.677 
		8.228,12.716 8.177,12.755 8.131,12.802 8.088,12.848 8.049,12.898 8.022,12.953 7.999,13.015 7.987,13.077 7.983,13.209 
		8.003,13.314 8.042,13.391 8.092,13.449 8.15,13.488 8.216,13.511 8.278,13.523 8.34,13.527 8.457,13.523 8.561,13.511 
		8.662,13.496 8.751,13.473 8.829,13.445 8.903,13.411 8.969,13.376 9.027,13.333 9.077,13.294 9.124,13.248 9.163,13.205 
		9.194,13.158 9.221,13.112 9.244,13.065 9.264,13.023 9.275,12.98 9.306,12.868 9.333,12.739 9.357,12.615 9.376,12.515 	"/>
	<polygon fill="#FFFFFF" points="2.149,14.388 1.094,14.388 1.974,9.295 3.809,9.295 3.984,12.317 5.252,9.295 7.169,9.295 
		6.269,14.388 5.214,14.388 5.881,10.583 5.838,10.583 4.259,14.388 3.068,14.388 3.061,14.229 3.034,13.806 2.999,13.205 
		2.96,12.515 2.921,11.82 2.886,11.211 2.859,10.769 2.851,10.583 2.84,10.583 2.816,10.583 2.793,10.583 2.793,10.583 
		2.149,14.388 	"/>
	<polyline fill="none" stroke="#FFFFFF" stroke-width="0.0444" stroke-miterlimit="2.6131" points="2.149,14.388 1.094,14.388 
		1.974,9.295 3.809,9.295 3.984,12.317 5.252,9.295 7.169,9.295 6.269,14.388 5.214,14.388 5.881,10.583 5.838,10.583 4.259,14.388 
		3.068,14.388 3.068,14.388 3.061,14.229 3.034,13.806 2.999,13.205 2.96,12.515 2.921,11.82 2.886,11.211 2.859,10.769 
		2.851,10.583 2.851,10.583 2.84,10.583 2.816,10.583 2.793,10.583 2.793,10.583 2.149,14.388 	"/>
	<polygon fill="#FFFFFF" points="29.564,13.527 29.405,14.388 28.431,14.388 28.439,14.229 28.443,14.089 28.443,13.985 
		28.45,13.938 28.4,13.996 28.342,14.054 28.272,14.109 28.194,14.163 28.113,14.214 28.02,14.26 27.923,14.307 27.826,14.345 
		27.721,14.376 27.612,14.407 27.504,14.427 27.395,14.442 27.283,14.45 27.174,14.454 27.069,14.442 26.965,14.427 26.825,14.392 
		26.701,14.353 26.592,14.303 26.491,14.245 26.406,14.183 26.332,14.113 26.27,14.039 26.216,13.961 26.169,13.88 26.135,13.794 
		26.103,13.709 26.084,13.624 26.069,13.535 26.057,13.445 26.049,13.36 26.049,13.275 26.057,13.123 26.08,12.98 26.115,12.844 
		26.165,12.712 26.224,12.588 26.297,12.476 26.379,12.367 26.468,12.27 26.569,12.181 26.674,12.099 26.786,12.026 26.906,11.964 
		27.027,11.909 27.155,11.867 27.283,11.832 27.415,11.808 27.422,11.808 27.442,11.804 27.469,11.801 27.508,11.797 27.558,11.789 
		27.612,11.785 27.671,11.777 27.733,11.77 27.799,11.762 27.868,11.754 27.934,11.75 28,11.742 28.062,11.739 28.117,11.735 
		28.171,11.731 28.214,11.731 28.307,11.731 28.4,11.735 28.489,11.739 28.575,11.739 28.648,11.742 28.71,11.746 28.745,11.75 
		28.761,11.75 28.768,11.723 28.78,11.653 28.792,11.572 28.8,11.498 28.784,11.413 28.753,11.335 28.702,11.265 28.644,11.207 
		28.575,11.157 28.493,11.122 28.408,11.098 28.315,11.091 28.206,11.087 28.09,11.083 27.969,11.083 27.845,11.087 27.717,11.095 
		27.593,11.106 27.469,11.118 27.349,11.133 27.232,11.149 27.12,11.168 27.019,11.188 26.926,11.207 26.84,11.23 26.771,11.254 
		26.716,11.281 26.674,11.304 26.945,10.369 27.031,10.334 27.12,10.303 27.209,10.276 27.302,10.257 27.399,10.237 27.496,10.222 
		27.597,10.206 27.702,10.199 27.81,10.191 27.923,10.187 28.035,10.183 28.155,10.183 28.276,10.183 28.4,10.183 28.532,10.187 
		28.664,10.191 28.772,10.199 28.889,10.218 29.009,10.245 29.133,10.28 29.253,10.327 29.374,10.381 29.49,10.447 29.599,10.52 
		29.696,10.606 29.785,10.699 29.862,10.804 29.921,10.92 29.963,11.044 29.99,11.176 29.99,11.324 29.971,11.479 29.564,13.527 	
		"/>
	<polygon fill="#FFFFFF" points="29.405,14.415 29.428,14.392 29.587,13.531 29.541,13.523 29.381,14.384 29.405,14.361 
		29.405,14.415 29.424,14.411 29.428,14.392 29.405,14.415 	"/>
	<polygon fill="#FFFFFF" points="28.408,14.388 28.431,14.415 29.405,14.415 29.405,14.361 28.431,14.361 28.454,14.388 
		28.408,14.388 28.404,14.415 28.431,14.415 28.408,14.388 	"/>
	<polygon fill="#FFFFFF" points="28.47,13.954 28.435,13.923 28.419,13.985 28.415,14.089 28.415,14.229 28.408,14.388 
		28.454,14.388 28.462,14.229 28.47,14.089 28.466,13.985 28.466,13.954 28.431,13.923 28.47,13.954 	"/>
	<polygon fill="#FFFFFF" points="26.961,14.45 26.961,14.45 27.069,14.466 27.174,14.477 27.283,14.473 27.395,14.466 27.508,14.45 
		27.616,14.431 27.725,14.4 27.834,14.369 27.931,14.33 28.031,14.283 28.125,14.237 28.206,14.183 28.287,14.128 28.357,14.074 
		28.419,14.012 28.47,13.954 28.431,13.923 28.381,13.981 28.326,14.035 28.256,14.089 28.183,14.144 28.101,14.19 28.008,14.237 
		27.915,14.283 27.818,14.322 27.717,14.353 27.608,14.384 27.5,14.404 27.395,14.419 27.283,14.427 27.174,14.431 27.069,14.419 
		26.969,14.404 26.969,14.404 26.961,14.45 	"/>
	<polygon fill="#FFFFFF" points="26.022,13.275 26.022,13.275 26.026,13.36 26.034,13.445 26.045,13.539 26.061,13.628 
		26.08,13.713 26.111,13.802 26.146,13.892 26.197,13.973 26.251,14.054 26.313,14.128 26.391,14.202 26.48,14.264 26.581,14.326 
		26.693,14.376 26.821,14.415 26.961,14.45 26.969,14.404 26.829,14.369 26.709,14.33 26.604,14.279 26.503,14.225 26.421,14.163 
		26.352,14.097 26.29,14.023 26.235,13.95 26.193,13.868 26.158,13.787 26.127,13.705 26.107,13.62 26.092,13.531 26.08,13.445 
		26.072,13.36 26.076,13.275 26.076,13.275 26.022,13.275 	"/>
	<polygon fill="#FFFFFF" points="27.415,11.785 27.415,11.785 27.279,11.808 27.147,11.843 27.019,11.886 26.895,11.94 
		26.774,12.002 26.658,12.08 26.553,12.161 26.452,12.255 26.359,12.351 26.278,12.46 26.2,12.576 26.142,12.704 26.092,12.836 
		26.057,12.976 26.034,13.123 26.022,13.275 26.076,13.275 26.08,13.123 26.103,12.984 26.138,12.852 26.189,12.72 26.247,12.6 
		26.317,12.491 26.398,12.383 26.484,12.286 26.584,12.2 26.689,12.119 26.798,12.049 26.918,11.987 27.034,11.933 27.162,11.89 
		27.287,11.855 27.415,11.832 27.415,11.832 27.415,11.785 	"/>
	<polygon fill="#FFFFFF" points="28.214,11.704 28.214,11.704 28.171,11.704 28.117,11.711 28.062,11.715 28,11.719 27.934,11.727 
		27.868,11.731 27.799,11.739 27.733,11.746 27.671,11.754 27.612,11.762 27.558,11.766 27.508,11.774 27.469,11.777 27.438,11.781 
		27.422,11.785 27.415,11.785 27.415,11.832 27.422,11.832 27.446,11.828 27.469,11.824 27.508,11.82 27.558,11.812 27.612,11.808 
		27.671,11.801 27.733,11.793 27.799,11.785 27.868,11.777 27.934,11.774 28,11.766 28.062,11.762 28.117,11.758 28.171,11.758 
		28.214,11.758 28.214,11.758 28.214,11.704 	"/>
	<polygon fill="#FFFFFF" points="28.737,11.746 28.761,11.727 28.745,11.727 28.71,11.723 28.648,11.719 28.575,11.711 
		28.489,11.711 28.4,11.711 28.307,11.704 28.214,11.704 28.214,11.758 28.307,11.758 28.4,11.758 28.489,11.766 28.575,11.766 
		28.648,11.766 28.71,11.77 28.745,11.774 28.761,11.774 28.784,11.754 28.761,11.774 28.78,11.777 28.784,11.754 28.737,11.746 	
		"/>
	<polygon fill="#FFFFFF" points="28.776,11.498 28.772,11.498 28.768,11.572 28.757,11.649 28.745,11.719 28.737,11.746 
		28.784,11.754 28.792,11.727 28.803,11.657 28.815,11.572 28.827,11.498 28.823,11.498 28.776,11.498 	"/>
	<polygon fill="#FFFFFF" points="28.315,11.114 28.315,11.118 28.404,11.122 28.485,11.145 28.563,11.18 28.629,11.227 
		28.683,11.281 28.73,11.347 28.761,11.417 28.776,11.498 28.823,11.498 28.807,11.409 28.776,11.324 28.722,11.25 28.66,11.188 
		28.586,11.133 28.501,11.098 28.412,11.075 28.315,11.064 28.315,11.067 28.315,11.114 	"/>
	<polygon fill="#FFFFFF" points="26.65,11.3 26.689,11.324 26.728,11.304 26.778,11.277 26.844,11.254 26.93,11.23 27.023,11.211 
		27.124,11.192 27.236,11.172 27.349,11.157 27.469,11.141 27.593,11.13 27.717,11.118 27.845,11.11 27.969,11.11 28.09,11.11 
		28.206,11.11 28.315,11.114 28.315,11.067 28.206,11.064 28.09,11.056 27.969,11.056 27.845,11.064 27.717,11.071 27.593,11.083 
		27.469,11.095 27.349,11.11 27.228,11.126 27.116,11.145 27.015,11.164 26.922,11.184 26.837,11.207 26.763,11.23 26.705,11.258 
		26.658,11.285 26.697,11.308 26.65,11.3 	"/>
	<polygon fill="#FFFFFF" points="26.938,10.346 26.922,10.365 26.65,11.3 26.697,11.308 26.969,10.373 26.953,10.393 26.938,10.346 
		26.926,10.35 26.922,10.365 26.938,10.346 	"/>
	<polygon fill="#FFFFFF" points="28.664,10.167 28.664,10.167 28.532,10.16 28.4,10.156 28.276,10.156 28.155,10.156 28.035,10.156 
		27.923,10.164 27.81,10.167 27.702,10.175 27.597,10.183 27.492,10.199 27.395,10.214 27.298,10.233 27.205,10.253 27.112,10.28 
		27.023,10.311 26.938,10.346 26.953,10.393 27.038,10.358 27.127,10.327 27.213,10.299 27.306,10.28 27.403,10.261 27.5,10.245 
		27.597,10.23 27.702,10.222 27.81,10.214 27.923,10.21 28.035,10.21 28.155,10.21 28.276,10.21 28.4,10.21 28.532,10.214 
		28.664,10.214 28.664,10.214 28.664,10.167 	"/>
	<polygon fill="#FFFFFF" points="29.994,11.483 29.994,11.483 30.014,11.324 30.014,11.176 29.987,11.04 29.944,10.912 
		29.882,10.792 29.804,10.683 29.711,10.586 29.614,10.501 29.502,10.427 29.385,10.358 29.261,10.303 29.141,10.257 29.013,10.222 
		28.893,10.195 28.772,10.175 28.664,10.167 28.664,10.214 28.772,10.222 28.885,10.241 29.005,10.268 29.125,10.303 29.246,10.35 
		29.362,10.404 29.478,10.466 29.583,10.54 29.68,10.625 29.765,10.714 29.843,10.815 29.897,10.928 29.94,11.048 29.967,11.176 
		29.967,11.324 29.948,11.475 29.948,11.475 29.994,11.483 	"/>
	<polygon fill="#FFFFFF" points="29.587,13.531 29.587,13.531 29.994,11.483 29.948,11.475 29.541,13.523 29.541,13.523 
		29.587,13.531 	"/>
	<polygon fill="#B6B6B6" points="28.625,12.515 28.617,12.491 28.602,12.472 28.575,12.46 28.536,12.449 28.493,12.445 
		28.443,12.441 28.384,12.441 28.326,12.445 28.264,12.452 28.202,12.46 28.14,12.468 28.082,12.476 28.024,12.487 27.973,12.495 
		27.923,12.507 27.884,12.515 27.857,12.518 27.826,12.53 27.787,12.542 27.744,12.557 27.694,12.58 27.647,12.604 27.593,12.631 
		27.543,12.666 27.492,12.701 27.442,12.743 27.399,12.786 27.356,12.836 27.322,12.891 27.294,12.949 27.271,13.011 27.259,13.077 
		27.256,13.209 27.275,13.314 27.306,13.391 27.353,13.449 27.411,13.488 27.477,13.511 27.543,13.523 27.608,13.527 27.725,13.523 
		27.834,13.511 27.934,13.492 28.024,13.465 28.109,13.434 28.183,13.399 28.253,13.36 28.315,13.314 28.369,13.271 28.415,13.22 
		28.458,13.174 28.493,13.123 28.52,13.077 28.54,13.03 28.555,12.984 28.567,12.941 28.582,12.832 28.602,12.72 28.617,12.611 
		28.625,12.515 	"/>
	<polygon fill="#FFFFFF" points="36.616,13.857 36.624,13.767 36.655,13.663 36.709,13.57 36.775,13.488 36.857,13.422 
		36.95,13.376 37.051,13.345 37.159,13.333 37.268,13.345 37.369,13.376 37.462,13.422 37.543,13.488 37.609,13.57 37.664,13.663 
		37.695,13.767 37.702,13.857 37.586,13.857 37.582,13.787 37.559,13.701 37.52,13.624 37.47,13.558 37.408,13.504 37.334,13.465 
		37.248,13.438 37.159,13.43 37.07,13.438 36.985,13.465 36.911,13.504 36.849,13.558 36.799,13.624 36.76,13.701 36.736,13.787 
		36.729,13.857 36.616,13.857 	"/>
	<polygon fill="#FFFFFF" points="36.965,13.857 36.965,13.624 37.179,13.624 37.225,13.628 37.268,13.636 37.299,13.647 
		37.326,13.663 37.346,13.686 37.361,13.709 37.369,13.736 37.373,13.764 37.369,13.798 37.361,13.826 37.349,13.849 37.342,13.857 
		37.179,13.857 37.194,13.853 37.221,13.849 37.245,13.841 37.264,13.833 37.28,13.822 37.287,13.81 37.295,13.791 37.295,13.764 
		37.291,13.744 37.283,13.729 37.272,13.721 37.26,13.713 37.241,13.709 37.221,13.705 37.202,13.705 37.179,13.705 37.062,13.705 
		37.062,13.857 36.965,13.857 	"/>
	<polygon fill="#FFFFFF" points="36.616,13.857 36.612,13.88 36.624,13.992 36.655,14.097 36.709,14.19 36.775,14.268 
		36.857,14.334 36.95,14.384 37.051,14.415 37.159,14.427 37.268,14.415 37.369,14.384 37.462,14.334 37.543,14.268 37.609,14.19 
		37.664,14.097 37.695,13.992 37.706,13.88 37.702,13.857 37.586,13.857 37.59,13.88 37.582,13.973 37.559,14.058 37.52,14.132 
		37.47,14.198 37.408,14.252 37.334,14.295 37.248,14.322 37.159,14.33 37.07,14.322 36.985,14.295 36.911,14.252 36.849,14.198 
		36.799,14.132 36.76,14.058 36.736,13.973 36.729,13.88 36.729,13.857 36.616,13.857 	"/>
	<polygon fill="#FFFFFF" points="36.965,13.857 36.965,14.093 37.062,14.093 37.062,13.899 37.159,13.899 37.276,14.093 
		37.353,14.093 37.237,13.899 37.264,13.899 37.291,13.892 37.314,13.884 37.334,13.868 37.342,13.857 37.179,13.857 37.159,13.86 
		37.062,13.86 37.062,13.857 36.965,13.857 	"/>
	<path fill="none" stroke="#FFFFFF" stroke-width="0.0091" stroke-miterlimit="2.6131" d="M36.612,13.88L36.612,13.88l0.012-0.113
		l0.031-0.105l0.054-0.093l0.066-0.081l0.081-0.066l0.093-0.047l0.101-0.031l0.109-0.012l0,0l0.109,0.012l0.101,0.031l0.093,0.047
		l0.081,0.066l0.066,0.081l0.054,0.093l0.031,0.105l0.012,0.113l0,0l-0.012,0.113l-0.031,0.105l-0.054,0.093l-0.066,0.078
		l-0.081,0.066l-0.093,0.05l-0.101,0.031l-0.109,0.012l0,0l-0.109-0.012l-0.101-0.031l-0.093-0.05l-0.081-0.066l-0.066-0.078
		l-0.054-0.093l-0.031-0.105L36.612,13.88 M37.062,14.093h-0.097v-0.469h0.213l0,0l0.047,0.004l0.043,0.008l0.031,0.012l0.027,0.015
		l0.019,0.023l0.015,0.023l0.008,0.027l0.004,0.027l0,0l-0.004,0.035l-0.008,0.027l-0.012,0.023l-0.016,0.019l-0.019,0.015
		l-0.023,0.008l-0.027,0.008h-0.027l0.116,0.194h-0.077l-0.117-0.194h-0.097V14.093 M37.159,13.86L37.159,13.86l0.035-0.008
		l0.027-0.004l0.023-0.008l0.019-0.008l0.016-0.012l0.008-0.012l0.008-0.019v-0.027l0,0l-0.004-0.019l-0.008-0.015l-0.012-0.008
		l-0.012-0.008l-0.019-0.004l-0.019-0.004h-0.019h-0.023h-0.116v0.155H37.159 M37.159,14.33L37.159,14.33l0.089-0.008l0.085-0.027
		l0.074-0.043l0.062-0.055l0.051-0.066l0.039-0.074l0.023-0.085l0.008-0.093l0,0l-0.008-0.093l-0.023-0.085l-0.039-0.077
		l-0.051-0.066l-0.062-0.054l-0.074-0.039l-0.085-0.027l-0.089-0.008l0,0l-0.089,0.008l-0.085,0.027l-0.074,0.039l-0.062,0.054
		l-0.05,0.066l-0.039,0.077l-0.023,0.085l-0.008,0.093l0,0l0.008,0.093l0.023,0.085l0.039,0.074l0.05,0.066l0.062,0.055l0.074,0.043
		l0.085,0.027L37.159,14.33"/>
	<polygon fill="#FFFFFF" points="29.855,14.388 30.949,14.388 30.949,14.388 31.341,12.181 31.356,12.095 31.379,12.01 
		31.403,11.925 31.433,11.84 31.472,11.754 31.519,11.673 31.569,11.595 31.631,11.521 31.701,11.455 31.779,11.393 31.868,11.335 
		31.969,11.289 32.081,11.25 32.206,11.219 32.341,11.195 32.493,11.188 32.547,11.188 32.578,11.188 32.589,11.188 32.589,11.188 
		32.764,10.191 32.655,10.199 32.551,10.21 32.454,10.23 32.361,10.257 32.275,10.288 32.194,10.327 32.116,10.369 32.043,10.416 
		31.973,10.47 31.907,10.524 31.845,10.586 31.783,10.649 31.725,10.714 31.666,10.788 31.608,10.858 31.554,10.936 31.67,10.233 
		30.58,10.233 29.855,14.388 29.855,14.388 	"/>
	<polyline fill="none" stroke="#FFFFFF" stroke-width="0.0444" stroke-miterlimit="2.6131" points="29.855,14.388 30.949,14.388 
		30.949,14.388 31.341,12.181 31.341,12.181 31.356,12.095 31.379,12.01 31.403,11.925 31.433,11.84 31.472,11.754 31.519,11.673 
		31.569,11.595 31.631,11.521 31.701,11.455 31.779,11.393 31.868,11.335 31.969,11.289 32.081,11.25 32.206,11.219 32.341,11.195 
		32.493,11.188 32.493,11.188 32.547,11.188 32.578,11.188 32.589,11.188 32.589,11.188 32.764,10.191 32.764,10.191 32.655,10.199 
		32.551,10.21 32.454,10.23 32.361,10.257 32.275,10.288 32.194,10.327 32.116,10.369 32.043,10.416 31.973,10.47 31.907,10.524 
		31.845,10.586 31.783,10.649 31.725,10.714 31.666,10.788 31.608,10.858 31.554,10.936 31.67,10.233 30.58,10.233 29.855,14.388 
		29.855,14.388 	"/>
	<polygon fill="#FFFFFF" points="19.582,14.388 20.676,14.388 20.696,14.388 21.068,12.181 21.084,12.095 21.103,12.014 
		21.122,11.933 21.15,11.855 21.181,11.777 21.219,11.704 21.266,11.634 21.32,11.568 21.382,11.51 21.452,11.452 21.538,11.405 
		21.631,11.362 21.739,11.327 21.859,11.296 21.991,11.277 22.143,11.265 22.154,11.265 22.17,11.269 22.189,11.273 22.209,11.273 
		22.228,11.277 22.244,11.281 22.255,11.285 22.259,11.285 22.263,11.269 22.275,11.223 22.29,11.153 22.31,11.067 22.337,10.967 
		22.364,10.858 22.399,10.749 22.434,10.641 22.465,10.567 22.504,10.493 22.542,10.42 22.581,10.354 22.616,10.296 22.643,10.249 
		22.663,10.222 22.67,10.21 22.666,10.21 22.651,10.206 22.632,10.202 22.604,10.199 22.577,10.199 22.546,10.195 22.519,10.191 
		22.492,10.191 22.372,10.199 22.263,10.21 22.162,10.23 22.069,10.253 21.98,10.284 21.898,10.323 21.825,10.361 21.755,10.408 
		21.689,10.458 21.627,10.517 21.569,10.575 21.51,10.641 21.452,10.707 21.398,10.78 21.34,10.858 21.282,10.936 21.421,10.233 
		20.308,10.233 19.582,14.388 19.582,14.388 	"/>
	<polyline fill="none" stroke="#FFFFFF" stroke-width="0.0444" stroke-miterlimit="2.6131" points="19.582,14.388 20.676,14.388 
		20.696,14.388 21.068,12.181 21.068,12.181 21.084,12.095 21.103,12.014 21.122,11.933 21.15,11.855 21.181,11.777 21.219,11.704 
		21.266,11.634 21.32,11.568 21.382,11.51 21.452,11.452 21.538,11.405 21.631,11.362 21.739,11.327 21.859,11.296 21.991,11.277 
		22.143,11.265 22.143,11.265 22.154,11.265 22.17,11.269 22.189,11.273 22.209,11.273 22.228,11.277 22.244,11.281 22.255,11.285 
		22.259,11.285 22.259,11.285 22.263,11.269 22.275,11.223 22.29,11.153 22.31,11.067 22.337,10.967 22.364,10.858 22.399,10.749 
		22.434,10.641 22.434,10.641 22.465,10.567 22.504,10.493 22.542,10.42 22.581,10.354 22.616,10.296 22.643,10.249 22.663,10.222 
		22.67,10.21 22.67,10.21 22.666,10.21 22.651,10.206 22.632,10.202 22.604,10.199 22.577,10.199 22.546,10.195 22.519,10.191 
		22.492,10.191 22.492,10.191 22.372,10.199 22.263,10.21 22.162,10.23 22.069,10.253 21.98,10.284 21.898,10.323 21.825,10.361 
		21.755,10.408 21.689,10.458 21.627,10.517 21.569,10.575 21.51,10.641 21.452,10.707 21.398,10.78 21.34,10.858 21.282,10.936 
		21.421,10.233 20.308,10.233 19.582,14.388 19.582,14.388 	"/>
	<polygon id="fix_1_" fill="#FFFFFF" points="16.808,11.645 17.117,11.704 17.305,11.886 17.202,12.415 16.928,12.826 
		16.569,12.792 	"/>
</g>
<polygon id="fix" fill="#FFFFFF" points="16.843,11.79 17.211,11.79 17.271,11.867 17.159,12.543 17.039,12.62 16.748,12.62 "/>
</svg>
