<?xml version="1.0" encoding="utf-8"?>
<!-- Generator: Adobe Illustrator 18.0.0, SVG Export Plug-In . SVG Version: 6.00 Build 0)  -->
<!DOCTYPE svg PUBLIC "-//W3C//DTD SVG 1.1//EN" "http://www.w3.org/Graphics/SVG/1.1/DTD/svg11.dtd" [
	<!ENTITY ns_extend "http://ns.adobe.com/Extensibility/1.0/">
	<!ENTITY ns_ai "http://ns.adobe.com/AdobeIllustrator/10.0/">
	<!ENTITY ns_graphs "http://ns.adobe.com/Graphs/1.0/">
	<!ENTITY ns_vars "http://ns.adobe.com/Variables/1.0/">
	<!ENTITY ns_imrep "http://ns.adobe.com/ImageReplacement/1.0/">
	<!ENTITY ns_sfw "http://ns.adobe.com/SaveForWeb/1.0/">
	<!ENTITY ns_custom "http://ns.adobe.com/GenericCustomNamespace/1.0/">
	<!ENTITY ns_adobe_xpath "http://ns.adobe.com/XPath/1.0/">
]>
<svg version="1.1" id="Layer_1" xmlns:x="&ns_extend;" xmlns:i="&ns_ai;" xmlns:graph="&ns_graphs;"
	 xmlns="http://www.w3.org/2000/svg" xmlns:xlink="http://www.w3.org/1999/xlink" x="0px" y="0px" width="54.8px" height="18px"
	 viewBox="0 0 54.8 18" enable-background="new 0 0 54.8 18" xml:space="preserve">
<metadata>
	<sfw  xmlns="&ns_sfw;">
		<slices></slices>
		<sliceSourceBounds  width="54.8" height="18" y="14" x="2" bottomLeftOrigin="true"></sliceSourceBounds>
	</sfw>
</metadata>
<g id="_x34__x5F_COL_x5F_SQ">
	<g>
		<g>
			<g>
				
					<radialGradient id="SVGID_2_" cx="7.5638" cy="27.6491" r="65.5535" gradientTransform="matrix(1 0 0 -1 0 15)" gradientUnits="userSpaceOnUse">
					<stop  offset="0" style="stop-color:#9C9C9C"/>
					<stop  offset="0.427" style="stop-color:#858585"/>
					<stop  offset="0.7697" style="stop-color:#646464"/>
					<stop  offset="1" style="stop-color:#535353"/>
				</radialGradient>
				<path id="SVGID_1_" fill="url(#SVGID_2_)" d="M28.341,6.713V5.418c0,0-0.068-1.014-1.126-1.014h-1.645v2.309H23.88V0.057h4.1
					c0,0,2.14-0.259,2.14,1.948c0,1.149-0.946,1.554-0.946,1.554s0.821,0.384,0.821,1.51v1.644L28.341,6.713 M25.569,2.839h1.746
					c0.507,0,0.924-0.282,0.924-0.631c0-0.35-0.417-0.631-0.924-0.631h-1.746V2.839L25.569,2.839"/>
			</g>
		</g>
		<g>
			<g>
				
					<radialGradient id="SVGID_3_" cx="7.5644" cy="27.6504" r="65.5532" gradientTransform="matrix(1 0 0 -1 0 15)" gradientUnits="userSpaceOnUse">
					<stop  offset="0" style="stop-color:#9C9C9C"/>
					<stop  offset="0.427" style="stop-color:#858585"/>
					<stop  offset="0.7697" style="stop-color:#646464"/>
					<stop  offset="1" style="stop-color:#535353"/>
				</radialGradient>
				<path id="SVGID_4_" fill="url(#SVGID_3_)" d="M48.278,6.713l-2.68-4.449v4.449h-1.453h-0.271h-1.587l-0.598-1.397h-3.086
					l-0.587,1.397h-1.555H36.18h-0.812c0,0-2.275-0.326-2.275-3.142c0-3.695,2.58-3.548,2.669-3.571l2.084,0.057v1.498l-1.711,0.022
					c0,0-1.116,0-1.252,1.454c-0.016,0.167-0.023,0.32-0.022,0.463c0.006,2.25,1.953,1.552,2.017,1.531l2.095-4.967h2.365
					l2.534,6.037V0.057h2.388l2.647,4.382V0.057h1.701v6.656H48.278 M39.324,3.616h1.644l-0.81-1.982L39.324,3.616L39.324,3.616"/>
			</g>
		</g>
		<g>
			<g>
				
					<radialGradient id="SVGID_5_" cx="7.5644" cy="27.6491" r="65.5532" gradientTransform="matrix(1 0 0 -1 0 15)" gradientUnits="userSpaceOnUse">
					<stop  offset="0" style="stop-color:#9C9C9C"/>
					<stop  offset="0.427" style="stop-color:#858585"/>
					<stop  offset="0.7697" style="stop-color:#646464"/>
					<stop  offset="1" style="stop-color:#535353"/>
				</radialGradient>
				<path id="SVGID_7_" fill="url(#SVGID_5_)" d="M15.083,6.713V2.118l-2.118,4.595H11.58L9.45,2.14v4.573H7.975H7.75H6.116
					L5.531,5.317H2.444L1.847,6.713H0l2.804-6.656h2.377L7.75,6.173V0.057h2.669l1.859,4.134l1.847-4.134h2.669v6.656H15.083
					 M3.165,3.616H4.81L3.988,1.634L3.165,3.616L3.165,3.616"/>
			</g>
		</g>
		<g>
			<g>
				
					<radialGradient id="SVGID_6_" cx="7.5638" cy="27.6491" r="65.553" gradientTransform="matrix(1 0 0 -1 0 15)" gradientUnits="userSpaceOnUse">
					<stop  offset="0" style="stop-color:#9C9C9C"/>
					<stop  offset="0.427" style="stop-color:#858585"/>
					<stop  offset="0.7697" style="stop-color:#646464"/>
					<stop  offset="1" style="stop-color:#535353"/>
				</radialGradient>
				<polyline id="SVGID_10_" fill="url(#SVGID_6_)" points="17.73,6.713 17.73,0.057 23.001,0.057 23.001,1.611 19.431,1.611 
					19.431,2.636 22.912,2.636 22.912,4.145 19.431,4.145 19.431,5.272 23.001,5.272 23.001,6.713 17.73,6.713 				"/>
			</g>
		</g>
		<g>
			<g>
				
					<radialGradient id="SVGID_8_" cx="7.5638" cy="27.6485" r="65.554" gradientTransform="matrix(1 0 0 -1 0 15)" gradientUnits="userSpaceOnUse">
					<stop  offset="0" style="stop-color:#9C9C9C"/>
					<stop  offset="0.427" style="stop-color:#858585"/>
					<stop  offset="0.7697" style="stop-color:#646464"/>
					<stop  offset="1" style="stop-color:#535353"/>
				</radialGradient>
				<polyline id="SVGID_13_" fill="url(#SVGID_8_)" points="30.82,6.736 30.82,0.057 32.52,0.057 32.52,6.736 30.82,6.736 				"/>
			</g>
		</g>
	</g>
	<g>
		<g>
			<g>
				
					<radialGradient id="SVGID_9_" cx="7.5638" cy="27.6485" r="65.5521" gradientTransform="matrix(1 0 0 -1 0 15)" gradientUnits="userSpaceOnUse">
					<stop  offset="0" style="stop-color:#9C9C9C"/>
					<stop  offset="0.427" style="stop-color:#858585"/>
					<stop  offset="0.7697" style="stop-color:#646464"/>
					<stop  offset="1" style="stop-color:#535353"/>
				</radialGradient>
				<path id="SVGID_16_" fill="url(#SVGID_9_)" d="M34.863,18v-1.296c0,0-0.068-1.013-1.127-1.013h-1.644V18h-1.69v-6.657h4.101
					c0,0,2.14-0.259,2.14,1.949c0,1.149-0.946,1.555-0.946,1.555s0.812,0.383,0.812,1.508V18H34.863 M32.092,14.125h1.747
					c0.506,0,0.923-0.281,0.923-0.631s-0.417-0.631-0.923-0.631h-1.747V14.125L32.092,14.125"/>
			</g>
		</g>
		<g>
			<g>
				
					<radialGradient id="SVGID_11_" cx="7.5644" cy="27.6497" r="65.5547" gradientTransform="matrix(1 0 0 -1 0 15)" gradientUnits="userSpaceOnUse">
					<stop  offset="0" style="stop-color:#9C9C9C"/>
					<stop  offset="0.427" style="stop-color:#858585"/>
					<stop  offset="0.7697" style="stop-color:#646464"/>
					<stop  offset="1" style="stop-color:#535353"/>
				</radialGradient>
				<path id="SVGID_19_" fill="url(#SVGID_11_)" d="M23.599,17.989h-1.476l-1.791-1.971l-1.803,1.971h-1.025h-5.261v-6.668h5.261
					h0.89l1.938,2.118l1.948-2.107h1.296v-0.011h4.1c0,0,2.14-0.237,2.14,1.959c0,1.96-0.71,2.569-2.895,2.569h-1.656v2.14H23.599
					 M21.481,14.712l2.095,2.32v-4.63L21.481,14.712L21.481,14.712 M13.945,16.548h3.559l1.667-1.836l-1.667-1.826h-3.559v1.024
					h3.469v1.511h-3.469L13.945,16.548L13.945,16.548 M25.266,14.113h1.746c0.507,0,0.923-0.281,0.923-0.631
					c0-0.348-0.417-0.631-0.923-0.631h-1.746V14.113L25.266,14.113"/>
			</g>
		</g>
		<g>
			<g>
				
					<radialGradient id="SVGID_12_" cx="7.5638" cy="27.6485" r="65.5537" gradientTransform="matrix(1 0 0 -1 0 15)" gradientUnits="userSpaceOnUse">
					<stop  offset="0" style="stop-color:#9C9C9C"/>
					<stop  offset="0.427" style="stop-color:#858585"/>
					<stop  offset="0.7697" style="stop-color:#646464"/>
					<stop  offset="1" style="stop-color:#535353"/>
				</radialGradient>
				<path id="SVGID_22_" fill="url(#SVGID_12_)" d="M46.386,17.978h-3.008v-1.533h2.636c0,0,0.946,0.113,0.946-0.528
					c0-0.599-1.43-0.552-1.43-0.552s-2.332,0.203-2.332-1.983c0-2.174,2.106-2.05,2.106-2.05h3.245v1.554h-2.613
					c0,0-0.902-0.181-0.902,0.474c0,0.55,1.227,0.472,1.227,0.472s2.58-0.191,2.58,1.814c0,2.15-1.662,2.341-2.251,2.341
					C46.463,17.987,46.386,17.978,46.386,17.978"/>
			</g>
		</g>
		<g>
			<g>
				
					<radialGradient id="SVGID_14_" cx="7.5638" cy="27.6497" r="65.5554" gradientTransform="matrix(1 0 0 -1 0 15)" gradientUnits="userSpaceOnUse">
					<stop  offset="0" style="stop-color:#9C9C9C"/>
					<stop  offset="0.427" style="stop-color:#858585"/>
					<stop  offset="0.7697" style="stop-color:#646464"/>
					<stop  offset="1" style="stop-color:#535353"/>
				</radialGradient>
				<polyline id="SVGID_25_" fill="url(#SVGID_14_)" points="37.341,17.989 37.341,11.343 42.612,11.343 42.612,12.886 
					39.042,12.886 39.042,13.91 42.523,13.91 42.523,15.421 39.042,15.421 39.042,16.548 42.612,16.548 42.612,17.989 
					37.341,17.989 				"/>
			</g>
		</g>
		<g>
			<g>
				
					<radialGradient id="SVGID_15_" cx="7.5638" cy="27.6485" r="65.5521" gradientTransform="matrix(1 0 0 -1 0 15)" gradientUnits="userSpaceOnUse">
					<stop  offset="0" style="stop-color:#9C9C9C"/>
					<stop  offset="0.427" style="stop-color:#858585"/>
					<stop  offset="0.7697" style="stop-color:#646464"/>
					<stop  offset="1" style="stop-color:#535353"/>
				</radialGradient>
				<path id="SVGID_28_" fill="url(#SVGID_15_)" d="M52.345,17.978h-3.008v-1.533h2.625c0,0,0.957,0.113,0.957-0.528
					c0-0.599-1.43-0.552-1.43-0.552s-2.332,0.203-2.332-1.983c0-2.174,2.106-2.05,2.106-2.05h3.234v1.554h-2.603
					c0,0-0.901-0.181-0.901,0.474c0,0.55,1.228,0.472,1.228,0.472s2.579-0.191,2.579,1.814c0,2.15-1.662,2.341-2.251,2.341
					C52.422,17.987,52.345,17.978,52.345,17.978"/>
			</g>
		</g>
	</g>
</g>
<g id="bounding_box">
</g>
</svg>
